<?xml version="1.0" encoding="UTF-8" standalone="no"?>
<!DOCTYPE svg  PUBLIC '-//W3C//DTD SVG 1.1//EN'  'http://www.w3.org/Graphics/SVG/1.1/DTD/svg11.dtd'>
<svg xmlns="http://www.w3.org/2000/svg">
<defs>
<font id="HelveticaNeueCyrThin-Regular" horiz-adv-x="556">
<font-face underline-position="-150" font-weight="100" descent="-200" panose-1="2 0 5 3 4 0 0 2 0 4" units-per-em="1000" unicode-range="U+0020-0491" bbox="-36 -214 1018 909" x-height="512" underline-thickness="50" font-family="HelveticaNeueCyrThin" ascent="800" cap-height="712"/>
<missing-glyph horiz-adv-x="1000"/>
<glyph glyph-name=".notdef" horiz-adv-x="1000"/>
<glyph glyph-name=".null" horiz-adv-x="0"/>
<glyph glyph-name="nonmarkingreturn" horiz-adv-x="1000"/>
<glyph glyph-name="space" horiz-adv-x="278" unicode=" "/>
<glyph glyph-name="exclam" horiz-adv-x="259" unicode="!" d="M153 98v-98h-47v98h47zM151 712v-200l-7 -332h-29l-7 332v200h43z"/>
<glyph glyph-name="quotedbl" horiz-adv-x="315" unicode='&quot;' d="M241 410h-29l-5 275h39zM102 410h-29l-5 275h39z"/>
<glyph glyph-name="numbersign" d="M336 250l35 186h-156l-34 -186h155zM135 0h-36l40 216h-122v34h128l34 186h-121v33h128l41 216h36l-42 -216h156l42 216h35l-41 -216h121v-33h-128l-34 -186h121v-34h-127l-40 -216h-36l40 216h-156z" unicode="#"/>
<glyph glyph-name="dollar" d="M287 332v-314q88 2 145 40t57 120q0 32 -13 58q-12 26 -30 40t-49 26t-53 18q-22 5 -57 12zM259 377v289q-83 -4 -129 -42t-46 -102q0 -124 175 -145zM287 776v-75h2q102 0 159 -50t57 -140v-8h-40q0 81 -43 121t-135 43v-296q243 -34 243 -194q0 -89 -66 -141t-175 -52 h-2v-88h-28v88q-243 5 -243 216v9h41q-1 -3 -1 -7v-6q0 -92 53 -132t150 -46v320q-46 9 -78 19q-33 9 -67 29t-52 54t-18 79q0 80 59 130t156 52v75h28z" unicode="$"/>
<glyph glyph-name="percent" horiz-adv-x="778" unicode="%" d="M207 669q-55 0 -91 -41t-36 -104q0 -64 36 -106t92 -42t92 42t36 107q0 63 -36 103t-93 41zM573 310q-53 0 -89 -42t-37 -102q1 -66 37 -108t92 -42q54 0 90 42t37 106q0 62 -37 104t-93 42zM208 700q72 0 118 -49t46 -126q0 -79 -46 -129t-118 -50t-118 50t-46 128 q0 76 46 126t118 50zM576 341q70 1 116 -49t47 -125q1 -81 -45 -131t-119 -50t-119 50t-45 127q0 77 47 127t118 51zM625 710l-443 -734h-36l444 734h35z"/>
<glyph glyph-name="ampersand" horiz-adv-x="593" unicode="&amp;" d="M249 365q-37 -21 -59 -36t-50 -40t-44 -55q-14 -30 -14 -63q0 -65 49 -109t122 -43q55 0 103 31t79 86zM261 411q132 74 132 159q0 44 -32 74t-79 29q-50 0 -82 -29t-32 -73q0 -24 18 -58t33 -52q14 -18 42 -50zM516 294q-3 -79 -37 -152l117 -142h-51l-87 107 q-75 -121 -207 -121q-92 0 -151 52t-59 133q0 38 16 72q17 35 47 63t57 46t66 41q-24 29 -34 41q-11 12 -29 39t-26 51t-8 46q0 61 43 99t111 38q64 0 106 -38t42 -96q0 -33 -12 -61t-39 -52q-27 -26 -45 -39t-53 -37l170 -211q22 61 25 121h38z"/>
<glyph glyph-name="quotesingle" horiz-adv-x="204" unicode="&apos;" d="M116 410h-29l-5 275h39z"/>
<glyph glyph-name="parenleft" horiz-adv-x="241" unicode="(" d="M231 720q-59 -96 -91 -216t-32 -239q0 -226 123 -449h-35q-128 225 -128 452q0 234 128 452h35z"/>
<glyph glyph-name="parenright" horiz-adv-x="241" unicode=")" d="M173 268q0 -227 -128 -452h-35q123 223 123 449q-1 119 -33 239t-90 216h35q128 -218 128 -452z"/>
<glyph glyph-name="asterisk" horiz-adv-x="352" unicode="*" d="M323 611l-125 -41l78 -105l-23 -17l-77 105l-80 -103l-24 17l80 103l-123 41l9 27l123 -42v130h29v-130l123 42z"/>
<glyph glyph-name="plus" horiz-adv-x="600" unicode="+" d="M283 29v225h-227v33h227v224h35v-224h227v-33h-227v-225h-35z"/>
<glyph glyph-name="comma" horiz-adv-x="278" unicode="," d="M164 102v-85q0 -54 -12 -91t-52 -54v34q33 21 34 94h-20v102h50z"/>
<glyph glyph-name="hyphen" horiz-adv-x="352" unicode="-" d="M283 290v-39h-214v39h214z"/>
<glyph glyph-name="period" horiz-adv-x="278" unicode="." d="M164 102v-102h-50v102h50z"/>
<glyph glyph-name="slash" horiz-adv-x="333" unicode="/" d="M344 718l-318 -727h-36l319 727h35z"/>
<glyph glyph-name="zero" d="M278 662q-99 0 -154 -88t-55 -244q0 -44 5 -84t19 -82q15 -42 37 -74q22 -30 60 -50t86 -19q61 0 105 30q43 31 65 81t31 102t9 108q0 57 -8 108q-8 52 -30 102t-66 80t-104 30zM278 700q57 0 102 -22t72 -57t45 -83q19 -48 25 -96t6 -99q0 -67 -12 -125t-38 -114 q-26 -55 -78 -87t-124 -32q-120 -1 -184 89t-64 258q0 66 12 126t37 117t77 91t124 34z" unicode="0"/>
<glyph glyph-name="one" d="M333 688v-688h-42v614q-43 -43 -83 -62t-100 -26v34q70 14 108 40t81 88h36z" unicode="1"/>
<glyph glyph-name="two" d="M505 37v-37h-459q6 77 48 130t118 105l62 42l51 36q17 11 46 37t43 46t27 51q12 30 12 62q0 71 -46 113t-125 42q-93 0 -136 -56t-45 -152h-41q1 9 1 21q4 103 62 163t161 60q96 0 153 -52t57 -138q0 -64 -31 -112t-89 -95q-42 -33 -120 -86q-40 -27 -54 -37t-44 -36 t-44 -51t-20 -56h413z" unicode="2"/>
<glyph glyph-name="three" d="M54 471q2 109 62 169t166 60q96 0 154 -49t59 -129q1 -63 -39 -105t-99 -49q69 -10 113 -54t43 -119q1 -94 -65 -152t-172 -58q-110 0 -175 60t-65 162v20h39v-14q-1 -90 53 -141t149 -51q87 -1 141 47t54 123q0 158 -209 158h-23v34h28q90 -1 138 35t48 103 q0 65 -47 104t-126 39q-89 0 -138 -50t-52 -143h-37z" unicode="3"/>
<glyph glyph-name="four" d="M365 211v343q0 49 1 87q-43 -67 -48 -74l-251 -356h298zM518 211v-35h-113v-176h-40v176h-333v41l333 473h40v-479h113z" unicode="4"/>
<glyph glyph-name="five" d="M478 685v-38h-320l-57 -270q61 84 175 84q101 0 167 -67t66 -170q1 -103 -67 -171t-171 -68q-106 1 -169 61t-65 163h39q4 -85 54 -137t141 -52q85 0 141 58t56 145t-56 145t-142 58q-112 0 -173 -94l-39 1l71 352h349z" unicode="5"/>
<glyph glyph-name="six" d="M284 419q-80 0 -136 -57t-56 -141q0 -85 56 -143t138 -58q83 0 138 58t55 142q1 86 -55 142t-140 57zM506 518h-41q-8 64 -56 106t-116 41q-53 -1 -93 -25t-62 -60t-36 -88t-17 -96q-4 -44 -4 -91q25 69 80 109t131 40q98 0 163 -66t65 -167t-67 -169t-168 -67 q-128 0 -193 102q-49 77 -49 231q0 186 65 284t186 98q87 0 144 -50t68 -132z" unicode="6"/>
<glyph glyph-name="seven" d="M499 685v-40q-132 -131 -211 -305t-84 -340h-43q4 168 88 349t213 298h-406v38h443z" unicode="7"/>
<glyph glyph-name="eight" d="M276 356q-93 0 -146 -44t-53 -119q-1 -81 53 -127t149 -46q93 0 146 46t53 127q0 77 -54 120t-148 43zM277 664q-82 0 -127 -36t-45 -103q1 -64 47 -100t127 -36q80 1 126 37t46 100q1 66 -45 102t-129 36zM193 373q-129 30 -129 153q0 82 58 128t156 46q100 0 157 -46 t57 -126q0 -62 -36 -102t-92 -53q70 -11 113 -57t43 -120q0 -98 -64 -154t-176 -57q-114 -1 -180 55t-65 152q0 74 44 122t114 59z" unicode="8"/>
<glyph glyph-name="nine" d="M267 664q-81 0 -137 -57t-55 -142q0 -85 55 -141t138 -56q82 0 138 56t56 142q0 84 -56 141t-139 57zM53 163h40q11 -65 59 -103t115 -39q99 1 153 85t54 242v38q-59 -154 -210 -154q-98 0 -164 66t-66 166t66 168t167 68q126 0 192 -97q54 -80 54 -240q0 -378 -247 -378 q-86 1 -144 49t-69 129z" unicode="9"/>
<glyph glyph-name="colon" horiz-adv-x="278" unicode=":" d="M164 512v-102h-50v102h50zM164 102v-102h-50v102h50z"/>
<glyph glyph-name="semicolon" horiz-adv-x="278" unicode=";" d="M164 512v-102h-50v102h50zM164 102v-85q0 -54 -12 -91t-52 -54v34q33 21 34 94h-20v102h50z"/>
<glyph glyph-name="less" horiz-adv-x="600" unicode="&lt;" d="M55 252v36l489 203v-36l-447 -185l447 -183v-37z"/>
<glyph glyph-name="equal" horiz-adv-x="600" unicode="=" d="M55 160v33h489v-33h-489zM55 343v33h489v-33h-489z"/>
<glyph glyph-name="greater" horiz-adv-x="600" unicode="&gt;" d="M545 252l-489 -202v37l448 183l-448 185v36l489 -203v-36z"/>
<glyph glyph-name="question" horiz-adv-x="519" unicode="?" d="M278 102v-102h-46v102h46zM43 491q0 101 55 169t162 67q92 0 148 -50t56 -129q0 -33 -8 -60t-30 -55q-22 -29 -36 -41q-12 -12 -47 -44q-46 -43 -57 -70t-11 -99h-39v11q0 69 16 103t65 81q35 33 52 51q17 19 35 53t19 69q0 63 -46 103t-118 41q-89 -1 -133 -59t-44 -141 h-39z"/>
<glyph glyph-name="at" horiz-adv-x="800" unicode="@" d="M522 422q0 48 -26 78t-74 30q-69 0 -116 -70t-47 -143q0 -51 26 -85t75 -34q54 0 91 42t57 103q14 45 14 79zM708 110l15 -20q-76 -53 -147 -78t-159 -25q-165 -1 -277 97t-113 258q1 170 121 276t288 106q141 0 237 -80t96 -214q0 -94 -56 -176t-145 -83q-31 0 -52 18 t-21 48q0 6 8 46q-53 -112 -150 -112q-63 1 -98 43t-35 105q0 85 57 161t140 76q55 0 88 -32t36 -84l31 103h35l-59 -191q-25 -86 -25 -110q0 -22 15 -34t38 -11q50 1 90 41t58 92t18 101q0 126 -90 196t-217 70q-157 -1 -269 -101t-112 -254q0 -100 52 -176t132 -115 q82 -38 179 -38q83 -1 149 23t142 74z"/>
<glyph glyph-name="A" horiz-adv-x="593" unicode="A" d="M454 266l-130 330q-6 12 -14 38t-12 37l-27 -72l-133 -333h316zM322 712l283 -712h-48l-89 230h-343l-91 -230h-47l289 712h46z"/>
<glyph glyph-name="B" horiz-adv-x="630" unicode="B" d="M105 351v-313h229q220 0 220 161q0 152 -214 152h-235zM105 675v-288h224q201 0 201 143q0 76 -52 110t-135 35h-238zM62 712h293q92 0 155 -45t63 -132q1 -63 -37 -107t-100 -55q72 -8 116 -55t45 -120q0 -103 -83 -158q-61 -40 -177 -40h-275v712z"/>
<glyph glyph-name="C" horiz-adv-x="704" unicode="C" d="M673 276q-10 -130 -95 -211t-213 -81q-147 0 -237 102t-89 268q-1 168 91 272t240 103q108 1 194 -63t98 -168h-42q-19 88 -87 140t-165 52q-128 0 -207 -92t-79 -243q0 -149 78 -241t206 -92q113 0 183 71t83 183h41z"/>
<glyph glyph-name="D" horiz-adv-x="667" unicode="D" d="M107 674v-636h183q295 0 295 326q0 144 -70 227t-213 83h-195zM64 712h240q158 0 241 -92t83 -253q0 -167 -80 -267t-243 -100h-241v712z"/>
<glyph glyph-name="E" horiz-adv-x="560" unicode="E" d="M538 712v-38h-437v-285h410v-38h-410v-313h441v-38h-484v712h480z"/>
<glyph glyph-name="F" horiz-adv-x="514" unicode="F" d="M518 712v-38h-405v-286h364v-37h-364v-351h-43v712h448z"/>
<glyph glyph-name="G" horiz-adv-x="741" unicode="G" d="M683 348v-348h-31l-6 127l1 46q-27 -89 -103 -139t-170 -50q-150 0 -243 101t-93 263q0 169 93 274t243 105q113 0 197 -65t100 -171h-41q-19 91 -90 145t-166 53q-133 1 -213 -93t-80 -248q1 -147 81 -237t213 -90q122 1 196 77t74 202v12h-263v36h301z"/>
<glyph glyph-name="H" horiz-adv-x="670" unicode="H" d="M607 712v-712h-43v353h-457v-353h-43v712h43v-321h457v321h43z"/>
<glyph glyph-name="I" horiz-adv-x="170" unicode="I" d="M107 712v-712h-43v712h43z"/>
<glyph glyph-name="J" horiz-adv-x="481" unicode="J" d="M419 712v-519q0 -209 -197 -209q-106 0 -152 54t-47 160q0 14 1 27h41v-21q-1 -92 33 -138t124 -45q86 0 120 45t34 130v516h43z"/>
<glyph glyph-name="K" horiz-adv-x="613" unicode="K" d="M611 712l-328 -296l348 -416h-55l-324 387l-148 -135v-252h-43v712h43v-409l450 409h57z"/>
<glyph glyph-name="L" horiz-adv-x="500" unicode="L" d="M511 39v-39h-450v712h44v-673h406z"/>
<glyph glyph-name="M" horiz-adv-x="809" unicode="M" d="M746 712v-712h-42v533q0 69 6 139q-6 -14 -16 -42t-16 -42l-251 -588h-42l-252 581q-2 4 -33 89q5 -115 5 -137v-533h-42v712h60l227 -528l56 -139q18 51 50 125q164 385 231 542h59z"/>
<glyph glyph-name="N" horiz-adv-x="678" unicode="N" d="M608 712v-712h-49l-399 564q-39 56 -62 98q3 -27 3 -109v-553h-42v712h50l391 -554q33 -48 69 -107q-3 67 -3 136l-1 525h43z"/>
<glyph glyph-name="O" horiz-adv-x="741" unicode="O" d="M369 691q-91 1 -159 -47t-101 -122t-33 -164q0 -151 81 -244t212 -93q132 0 214 92t82 240q-1 150 -83 244t-213 94zM369 729q151 0 245 -105t95 -273q0 -165 -94 -267t-246 -101q-153 1 -245 103t-92 270q0 166 94 270t243 103z"/>
<glyph glyph-name="P" horiz-adv-x="591" unicode="P" d="M109 674v-322h221q86 0 127 24q75 44 75 137q0 92 -63 133q-29 20 -57 24t-76 4h-227zM66 712h277q103 0 152 -33q80 -54 80 -164q0 -105 -74 -159q-56 -41 -146 -41h-246v-315h-43v712z"/>
<glyph glyph-name="Q" horiz-adv-x="741" unicode="Q" d="M568 99q96 105 96 259q0 147 -82 239t-211 92q-131 0 -213 -93t-82 -243q0 -143 78 -237t218 -94q96 0 166 54l-112 79l23 29zM711 -5l-22 -28l-117 84q-80 -67 -200 -67q-156 0 -248 104t-92 263q0 169 94 273t245 104q149 0 243 -103t94 -267q0 -86 -28 -160t-79 -124z "/>
<glyph glyph-name="R" horiz-adv-x="630" unicode="R" d="M107 675v-312h215q36 -1 65 3t59 14t50 27t32 46t13 68q0 86 -65 126q-46 28 -133 28h-236zM64 712h293q96 0 148 -33q79 -53 79 -156q0 -71 -41 -118t-110 -60q55 -9 88 -33t43 -77q6 -31 9 -99t10 -102q3 -15 14 -34h-48q-6 9 -10 29q-2 14 -4 43q-1 29 -3 62t-3 41 q-7 94 -53 123t-148 29h-221v-327h-43v712z"/>
<glyph glyph-name="S" horiz-adv-x="630" unicode="S" d="M571 509h-43q-11 180 -224 180q-94 1 -147 -39t-53 -110q0 -31 11 -54t29 -38q18 -14 47 -26t59 -20t72 -16q22 -4 33 -7q35 -7 49 -11t44 -14t46 -17q14 -8 36 -23q22 -16 32 -32t19 -40q8 -24 8 -54q0 -95 -71 -149t-196 -54q-130 0 -206 63t-76 188h41q1 -108 65 -162 t178 -53q105 -1 164 43t59 122q0 23 -7 42q-6 19 -16 33t-28 26t-33 19q-13 6 -39 14t-39 11t-41 9t-36 8q-111 26 -147 42q-100 45 -100 149q-1 87 65 137t181 51q117 0 187 -54t77 -164z"/>
<glyph glyph-name="T" horiz-adv-x="519" unicode="T" d="M533 712v-38h-252v-674h-43v674h-253v38h548z"/>
<glyph glyph-name="U" horiz-adv-x="672" unicode="U" d="M608 712v-469q0 -121 -72 -189t-198 -69q-280 0 -280 294v433h44v-435q0 -127 55 -191t181 -64q122 0 174 66t53 189v435h43z"/>
<glyph glyph-name="V" d="M570 712l-265 -712h-50l-270 712h48l213 -570q8 -20 20 -58t15 -46q5 21 34 102l211 572h44z" unicode="V"/>
<glyph glyph-name="W" horiz-adv-x="889" unicode="W" d="M893 712l-204 -712h-49l-167 562q-21 70 -30 110q-9 -38 -31 -112l-163 -560h-49l-207 712h46l157 -546q21 -73 30 -120q5 31 30 118l161 548h53l165 -553q16 -54 30 -113q9 49 28 113l157 553h43z"/>
<glyph glyph-name="X" d="M558 712l-254 -346l267 -366h-53l-241 333l-243 -333h-51l268 366l-253 346h52l227 -315l232 315h49z" unicode="X"/>
<glyph glyph-name="Y" horiz-adv-x="574" unicode="Y" d="M596 712l-288 -415v-297h-43v297l-287 415h52l226 -328q18 -26 32 -50l30 48l229 330h49z"/>
<glyph glyph-name="Z" horiz-adv-x="537" unicode="Z" d="M528 712v-42l-484 -632h493v-38h-540v43l484 631h-23t-40 -1h-391v39h501z"/>
<glyph glyph-name="bracketleft" horiz-adv-x="241" unicode="[" d="M231 721v-33h-98v-839h98v-33h-137v905h137z"/>
<glyph glyph-name="backslash" horiz-adv-x="333" unicode="\" d="M344 -9h-36l-318 727h35z"/>
<glyph glyph-name="bracketright" horiz-adv-x="241" unicode="]" d="M148 722v-906h-138v33h99v839h-99v34h138z"/>
<glyph glyph-name="asciicircum" horiz-adv-x="600" unicode="^" d="M116 274l165 411h39l165 -411h-39l-146 372l-145 -372h-39z"/>
<glyph glyph-name="underscore" horiz-adv-x="500" unicode="_" d="M0 -125v50h500v-50h-500z"/>
<glyph glyph-name="grave" horiz-adv-x="167" unicode="`" d="M19 736l121 -140h-38l-135 140h52z"/>
<glyph glyph-name="a" horiz-adv-x="500" unicode="a" d="M397 290q-15 -13 -35 -19q-31 -10 -110 -18t-119 -26q-60 -27 -60 -94q0 -52 36 -82t97 -30q82 0 136 51t55 128v90zM499 36v-32q-17 -6 -41 -6q-34 0 -46 18t-13 68v25q-33 -63 -80 -93t-120 -30q-81 0 -125 38t-44 105q0 141 196 157q103 8 128 14t35 21q7 11 7 53 q0 58 -37 88t-108 30q-143 0 -155 -137h-38q5 83 56 127t141 44q103 0 152 -55q14 -17 21 -39q8 -22 8 -36v-44v-265v-22t4 -16t12 -13t21 -4q10 0 26 4z"/>
<glyph glyph-name="b" d="M286 494q-84 0 -136 -64t-52 -172t52 -174t139 -66q85 0 137 64t52 177q0 108 -51 171q-52 64 -141 64zM98 712v-321q51 138 195 138q104 1 165 -73t61 -199t-61 -199t-165 -74q-149 0 -197 139v-123h-38v712h40z" unicode="b"/>
<glyph glyph-name="c" horiz-adv-x="519" unicode="c" d="M489 180q-11 -92 -69 -144t-149 -51q-111 1 -173 77t-62 192q0 125 66 199t174 74q89 1 144 -45t65 -127h-41q-8 63 -53 101t-114 37q-91 -1 -145 -65t-55 -172q0 -107 53 -172t140 -65q74 0 122 43t57 118h40z"/>
<glyph glyph-name="d" d="M264 493q-86 -1 -137 -65t-51 -174t50 -173t139 -63t141 64t51 174q-1 99 -49 168t-144 69zM496 712v-712h-38v125q-19 -67 -71 -104t-124 -37q-105 0 -167 72t-62 198t62 200t167 74q70 0 120 -36t73 -98v318h40z" unicode="d"/>
<glyph glyph-name="e" horiz-adv-x="519" unicode="e" d="M449 283q1 85 -47 146t-136 61t-135 -58t-56 -149h374zM485 174q-14 -86 -72 -138t-147 -53q-106 0 -170 73t-63 195q1 123 65 199t168 76q108 0 166 -76t58 -188v-14h-415q1 -97 49 -164t143 -67q71 0 117 41t61 116h40z"/>
<glyph glyph-name="f" horiz-adv-x="241" unicode="f" d="M254 713v-36q-32 3 -40 3q-24 0 -40 -7t-24 -15t-13 -26t-5 -30v-36v-10v-44h107v-35h-107v-477h-40v477h-89v35h89v64q0 68 24 104t96 36q12 0 42 -3z"/>
<glyph glyph-name="g" horiz-adv-x="537" unicode="g" d="M258 490q-84 0 -134 -60t-50 -159q0 -100 49 -159t132 -59q91 -1 139 63t48 159q0 97 -50 156t-134 59zM481 512v-471q0 -95 -29 -146q-51 -90 -193 -90q-92 1 -144 41t-58 116h41q4 -61 48 -92t115 -31q104 0 149 60q32 44 32 141v108q-49 -131 -192 -131q-99 0 -158 68 t-59 181q-1 118 61 189t163 71q135 0 187 -131v117h37z"/>
<glyph glyph-name="h" horiz-adv-x="519" unicode="h" d="M98 712v-283l-1 -33q23 59 69 94t115 35q91 0 137 -53t46 -144v-328h-40v322q0 77 -36 123t-115 46q-64 -1 -107 -39t-59 -101q-9 -36 -9 -91v-260h-40v712h40z"/>
<glyph glyph-name="i" horiz-adv-x="168" unicode="i" d="M104 512v-512h-40v512h40zM104 712v-101h-40v101h40z"/>
<glyph glyph-name="j" horiz-adv-x="168" unicode="j" d="M105 712v-100h-40v100h40zM105 512v-566q0 -72 -24 -102t-93 -31q-4 0 -24 2v34h20q49 1 65 21t16 73v569h40z"/>
<glyph glyph-name="k" horiz-adv-x="463" unicode="k" d="M468 512l-225 -191l240 -321h-51l-219 293l-116 -99v-194h-40v712h40v-472l21 18t20 19l275 235h55z"/>
<glyph glyph-name="l" horiz-adv-x="168" unicode="l" d="M104 712v-712h-40v712h40z"/>
<glyph glyph-name="m" horiz-adv-x="796" unicode="m" d="M97 512v-104q21 54 63 86t104 32q117 0 149 -110q52 110 166 110q77 0 119 -46t43 -119v-361h-40v346q0 143 -130 143q-66 0 -105 -41q-46 -47 -46 -133v-315h-40v338q0 60 -15 90q-29 61 -109 61q-73 0 -115 -53t-42 -145v-291h-40v512h38z"/>
<glyph glyph-name="n" horiz-adv-x="519" unicode="n" d="M96 512v-113q56 127 189 127q85 0 133 -50t47 -140v-336h-40v316q0 174 -149 174q-101 0 -150 -84q-29 -51 -29 -141v-265h-40v512h39z"/>
<glyph glyph-name="o" horiz-adv-x="537" unicode="o" d="M269 492q-89 0 -143 -65t-54 -171q0 -108 54 -172t144 -64q88 0 141 64t53 169q0 109 -53 174t-142 65zM270 527q108 -1 172 -75t64 -199q0 -123 -64 -195t-173 -73t-173 73t-65 198q-1 122 65 196t174 75z"/>
<glyph glyph-name="p" d="M289 492q-89 0 -139 -64t-50 -176q0 -62 18 -114t64 -87q44 -35 108 -35q84 0 136 65t52 172q0 111 -51 175t-138 64zM100 512v-122q50 136 191 136q105 0 167 -74t62 -199q0 -123 -62 -197t-166 -74q-71 0 -121 35t-69 99v-301h-40v697h38z" unicode="p"/>
<glyph glyph-name="q" d="M266 493q-88 -1 -139 -65t-51 -175q0 -108 51 -171t138 -63q87 -1 139 63t51 172q-1 112 -51 176t-138 63zM494 512v-697h-40v302q-50 -132 -193 -132q-103 0 -165 73t-61 196q1 126 63 200t167 74q139 0 191 -136v120h38z" unicode="q"/>
<glyph glyph-name="r" horiz-adv-x="278" unicode="r" d="M294 516v-41h-15q-89 0 -141 -69q-28 -38 -36 -80t-7 -105v-221h-40v512h39v-135q28 75 75 107t125 32z"/>
<glyph glyph-name="s" horiz-adv-x="481" unicode="s" d="M429 363h-41q-6 68 -46 98t-112 30q-64 0 -102 -27t-37 -73q1 -12 3 -22q2 -9 6 -17t11 -16q8 -8 13 -12q6 -4 18 -10t18 -8t22 -6t22 -6t26 -6q18 -4 24 -5q37 -9 53 -13t48 -16q31 -12 47 -26t29 -38t13 -55q0 -67 -56 -109t-146 -42q-97 0 -153 50t-56 138h40 q1 -76 45 -114t126 -38q72 0 116 31t44 82q0 21 -10 39t-23 28t-37 20t-36 13t-40 9q-2 2 -4 2h-4t-5 1q-7 3 -27 7t-31 6q-10 2 -29 8t-29 10t-25 12t-23 18q-9 10 -17 21q-8 12 -12 27t-3 33q-1 65 49 102t138 37t140 -42t53 -121z"/>
<glyph glyph-name="t" horiz-adv-x="259" unicode="t" d="M245 512v-35h-110v-347q1 -24 1 -32t3 -24t10 -22t21 -12t33 -6q17 0 42 4v-37q-29 -4 -48 -4q-30 0 -50 8q-21 7 -31 17t-15 32t-5 35q0 14 -1 45v12v331h-95v35h95v161h40v-161h110z"/>
<glyph glyph-name="u" horiz-adv-x="519" unicode="u" d="M458 512v-512h-38v108q-54 -123 -184 -123q-89 0 -135 53t-46 144v330h40v-321q0 -171 149 -171q86 0 130 62t44 152v278h40z"/>
<glyph glyph-name="v" horiz-adv-x="444" unicode="v" d="M447 512l-194 -512h-47l-208 512h44l147 -360q8 -22 22 -60t19 -52q13 38 41 114l134 358h42z"/>
<glyph glyph-name="w" horiz-adv-x="704" unicode="w" d="M705 512l-165 -512h-46l-121 389q-13 41 -21 76q-15 -57 -21 -75l-122 -390h-48l-165 512h44l119 -374q2 -7 26 -94q5 16 13 48t13 48l116 372h50l116 -374q6 -20 26 -93q17 68 25 91l120 376h41z"/>
<glyph glyph-name="x" horiz-adv-x="444" unicode="x" d="M432 512l-185 -242l205 -270h-52l-179 240l-180 -240h-48l203 268l-187 244h52l160 -214l163 214h48z"/>
<glyph glyph-name="y" horiz-adv-x="444" unicode="y" d="M447 512l-221 -565q-14 -39 -22 -55t-24 -38t-38 -30t-56 -8q-21 0 -39 2v36q16 -3 33 -3q36 -1 57 15t36 52q24 55 35 83l-217 511h45l169 -401q8 -19 23 -64q19 56 24 69l152 396h43z"/>
<glyph glyph-name="z" horiz-adv-x="426" unicode="z" d="M401 512v-33l-347 -444h362v-35h-407v38l343 439h-318v35h367z"/>
<glyph glyph-name="braceleft" horiz-adv-x="333" unicode="{" d="M325 -185q-74 0 -119 38q-26 21 -38 55t-14 58t-2 69v70q0 77 -28 108t-114 43v26q86 12 114 43t28 108v70q0 45 2 69t14 58t38 55q45 38 119 38v-26q-92 -4 -123 -69q-15 -31 -15 -110v-41q0 -40 -1 -61q-2 -21 -8 -52t-18 -47t-38 -30q-24 -14 -60 -18q36 -4 60 -18 t38 -30q12 -16 18 -47t8 -52q1 -21 1 -61v-41q0 -79 15 -110q31 -65 123 -69v-26z"/>
<glyph glyph-name="bar" horiz-adv-x="222" unicode="|" d="M93 -214v1000h36v-1000h-36z"/>
<glyph glyph-name="braceright" horiz-adv-x="333" unicode="}" d="M325 256q-86 -12 -114 -43t-28 -108v-70q0 -45 -2 -69q-3 -24 -15 -58t-37 -55q-45 -38 -119 -38v26q92 4 123 69q15 31 15 110v41q0 40 1 61t7 52t20 47q12 16 36 30t61 18q-37 4 -61 18t-36 30t-20 47q-6 31 -7 52t-1 61v41q0 79 -15 110q-31 65 -123 69v26 q74 0 119 -38q25 -21 37 -55t15 -58q2 -24 2 -69v-70q0 -77 28 -108t114 -43v-26z"/>
<glyph glyph-name="asciitilde" horiz-adv-x="600" unicode="~" d="M557 331q-9 -47 -39 -81t-77 -34q-37 0 -144 37q-15 5 -41 15t-40 13l-28 7t-29 4q-33 0 -57 -24t-32 -59h-28q10 49 39 82t77 33q16 0 36 -4t32 -8t40 -12q28 -10 40 -14l36 -12t36 -13q12 -4 30 -8t32 -4q34 0 58 24t32 58h27z"/>
<glyph glyph-name="sterling" d="M509 467h-40q-3 200 -192 200q-83 0 -135 -41t-51 -108q0 -29 9 -55q9 -25 31 -63t27 -49h159v-24h-145q25 -56 25 -106q-1 -39 -17 -75t-34 -58t-53 -57q64 33 108 33q36 0 84 -18q5 -2 23 -8t26 -10q8 -2 24 -5q14 -3 26 -3q34 0 72 18t65 49l22 -30q-70 -74 -156 -74 q-13 -1 -25 1t-30 7q-16 5 -24 7t-28 10q-21 8 -24 9q-36 13 -70 13q-54 0 -117 -45l-26 36q51 35 83 87t32 107q0 52 -29 112h-80v24h65q-4 5 -18 31t-18 35t-13 29t-12 38q-3 17 -3 36q0 82 63 132t165 51q116 0 174 -61t57 -175z" unicode="£"/>
<glyph glyph-name="currency" d="M278 528q-71 0 -121 -50t-50 -121q1 -71 51 -121t120 -50q72 0 122 50t50 121t-50 121t-122 50zM58 160l63 63q-49 62 -49 134t49 134l-64 64l24 23l63 -64q61 49 134 49q76 0 134 -49l64 64l23 -24l-63 -63q49 -65 49 -134q0 -70 -50 -134l64 -64l-23 -23l-64 64 q-61 -50 -134 -50q-75 0 -133 50l-64 -63z" unicode="¤"/>
<glyph glyph-name="brokenbar" horiz-adv-x="222" unicode="¦" d="M92 411v250h38v-250h-38zM92 -89v250h38v-250h-38z"/>
<glyph glyph-name="section" d="M186 449q-97 -41 -97 -119q0 -22 9 -41t27 -35q17 -16 31 -26t37 -24q16 -10 53 -32q36 -22 64 -38q28 -17 52 -34q102 32 102 113q0 56 -61 102q-55 43 -168 105q-35 19 -49 29zM447 534h-40q-6 141 -140 141q-53 0 -87 -28t-33 -72q1 -23 9 -41t30 -36t32 -24t40 -23 q134 -74 175 -108q71 -58 71 -125q0 -46 -30 -84t-84 -56q60 -51 60 -112q0 -62 -48 -102t-123 -40q-86 0 -134 49t-48 136h40q2 -74 38 -112t104 -38q57 -1 93 29t36 76q0 50 -41 83q-19 15 -47 33t-80 49q-52 30 -61 36q-41 25 -63 42t-44 50t-22 71q0 48 29 85t81 56 q-53 44 -53 105q-1 60 45 98t116 38q85 0 131 -46t48 -130z" unicode="§"/>
<glyph glyph-name="copyright" horiz-adv-x="800" unicode="©" d="M575 283q-9 -58 -56 -94t-107 -36q-88 0 -142 63t-55 151q1 87 53 149t136 63q64 1 113 -39t55 -101h-32q-9 51 -46 81t-88 30q-72 0 -114 -54t-41 -127q0 -77 44 -132t117 -55q48 0 84 28t48 73h31zM400 702q-141 0 -240 -100t-99 -239q0 -141 100 -240t239 -99 q140 0 240 100t100 239q0 141 -100 240t-240 99zM400 729q152 1 259 -107t107 -259q0 -152 -108 -259t-258 -107q-152 0 -259 108t-107 258q0 152 108 259t258 107z"/>
<glyph glyph-name="guillemotleft" horiz-adv-x="389" unicode="«" d="M181 418v-47l-86 -104l86 -99v-49l-115 128v41zM311 420v-48l-88 -105l88 -100v-48l-117 128v39z"/>
<glyph glyph-name="logicalnot" horiz-adv-x="600" unicode="¬" d="M55 343v33h489v-216h-34v183h-455z"/>
<glyph glyph-name="registered" horiz-adv-x="400" unicode="®" d="M154 552h45q59 0 59 37q0 17 -12 25t-20 8t-29 1h-43v-71zM131 644h78q30 0 51 -14t21 -43q0 -33 -35 -46q33 -16 33 -62q0 -19 6 -29h-25q-5 10 -5 23q0 35 -13 47t-51 11h-37v-81h-23v194zM199 708q-67 0 -115 -48t-47 -114q0 -67 48 -115t114 -48q67 0 115 48t47 115 q0 66 -48 114t-114 48zM199 729q75 0 129 -54t54 -129q0 -76 -54 -130t-129 -54t-129 54t-54 130t54 130t129 53z"/>
<glyph glyph-name="degree" horiz-adv-x="400" unicode="°" d="M200 667q-44 0 -76 -32t-32 -77q0 -44 32 -76t76 -32q45 0 77 32t32 76q0 45 -32 77t-77 32zM200 700q58 0 100 -42t42 -100t-42 -100t-100 -41q-58 -1 -100 41t-41 100q-1 58 41 100t100 42z"/>
<glyph glyph-name="plusminus" horiz-adv-x="600" unicode="±" d="M52 -4v33h489v-33h-489zM279 76v188h-227v33h227v189h35v-189h227v-33h-227v-188h-35z"/>
<glyph glyph-name="mu" horiz-adv-x="519" unicode="µ" d="M421 512h40v-512h-39v106q-62 -122 -176 -122q-99 0 -146 84v-253h-41v697h41v-325q0 -75 36 -121t111 -46q77 0 127 59q29 35 38 72t9 91v270z"/>
<glyph glyph-name="paragraph" horiz-adv-x="600" unicode="¶" d="M534 681h-56v-847h-37v847h-136v-847h-36v435q-95 -1 -153 61t-57 156q0 112 68 169t179 57h228v-31z"/>
<glyph glyph-name="periodcentered" horiz-adv-x="278" unicode="·" d="M156 355v-102h-50v102h50z"/>
<glyph glyph-name="guillemotright" horiz-adv-x="389" unicode="»" d="M79 418l116 -128v-39l-116 -132v46l88 105l-88 101v47zM208 418l115 -129v-39l-115 -131v48l87 103l-87 98v50z"/>
<glyph glyph-name="divide" horiz-adv-x="600" unicode="÷" d="M326 71h-50v100h50v-100zM553 253h-505v33h505v-33zM326 368h-50v100h50v-100z"/>
<glyph glyph-name="afii10023" horiz-adv-x="560" unicode="Ё" d="M224 887v-103h-42v103h42zM399 887v-103h-43v103h43zM538 712v-38h-437v-285h410v-38h-410v-312h441v-39h-484v712h480z"/>
<glyph glyph-name="afii10051" horiz-adv-x="704" unicode="Ђ" d="M260 144v-144h-43v674h-221v38h545v-38h-281v-392q50 136 191 136q57 0 101 -21t68 -55q26 -34 38 -75q12 -40 12 -83q0 -113 -70 -202t-176 -105v38q91 19 149 97t58 172q0 80 -47 140t-142 59q-84 1 -133 -63t-49 -176z"/>
<glyph glyph-name="afii10052" horiz-adv-x="500" unicode="Ѓ" d="M504 674h-394v-674h-43v712h437v-38zM371 909l-132 -140h-36l117 140h51z"/>
<glyph glyph-name="afii10053" horiz-adv-x="704" unicode="Є" d="M665 276q-10 -130 -95 -211t-213 -81q-147 0 -237 102t-89 268q-1 168 91 272t240 103q108 1 194 -63t98 -168h-42q-19 88 -87 140t-165 52q-120 0 -198 -82t-87 -217h375v-38h-376q1 -149 79 -240t205 -91q113 0 183 71t83 183h41z"/>
<glyph glyph-name="afii10054" horiz-adv-x="630" unicode="Ѕ" d="M571 509h-43q-11 180 -224 180q-94 1 -147 -39t-53 -110q0 -31 11 -54t29 -38q18 -14 47 -26t59 -20t72 -16q22 -4 33 -7q35 -7 49 -11t44 -14t46 -17q14 -8 36 -23q22 -16 32 -32t19 -40q8 -24 8 -54q0 -95 -71 -149t-196 -54q-130 0 -206 63t-76 188h41q1 -108 65 -162 t178 -53q105 -1 164 43t59 122q0 23 -7 42q-6 19 -16 33t-28 26t-33 19q-13 6 -39 14t-39 11t-41 9t-36 8q-111 26 -147 42q-100 45 -100 149q-1 87 65 137t181 51q117 0 187 -54t77 -164z"/>
<glyph glyph-name="afii10055" horiz-adv-x="170" unicode="І" d="M107 712v-712h-43v712h43z"/>
<glyph glyph-name="afii10056" horiz-adv-x="170" unicode="Ї" d="M19 887v-103h-42v103h42zM194 887v-103h-43v103h43zM105 712v-712h-43v712h43z"/>
<glyph glyph-name="afii10057" horiz-adv-x="481" unicode="Ј" d="M419 712v-519q0 -209 -197 -209q-106 0 -152 54t-47 160q0 14 1 27h41v-21q-1 -92 33 -138t124 -45q86 0 120 45t34 130v516h43z"/>
<glyph glyph-name="afii10058" horiz-adv-x="1000" unicode="Љ" d="M765 358h-200v-321h206q49 0 85 17q36 16 52 44t24 52q6 24 6 48q0 64 -42 112t-131 48zM565 712v-318h193q107 0 165 -50t58 -145q0 -60 -20 -102q-20 -41 -54 -61t-66 -28t-67 -8h-252v675h-282l-15 -449q-1 -43 -7 -80t-22 -74q-14 -37 -42 -59t-67 -22q-48 0 -72 9 v40q23 -12 72 -12q25 0 45 20t30 52t15 63t6 63l15 486h367z"/>
<glyph glyph-name="afii10059" horiz-adv-x="1000" unicode="Њ" d="M765 358h-221v-321h227q49 0 85 17q36 16 52 44t24 52q6 24 6 48q0 64 -42 112t-131 48zM774 0h-273v358h-395v-358h-43v712h43v-318h395v318h43v-318h214q107 0 165 -50t58 -145q0 -60 -20 -102q-20 -41 -54 -61t-66 -28t-67 -8z"/>
<glyph glyph-name="afii10060" horiz-adv-x="704" unicode="Ћ" d="M651 148v-148h-43v148q0 127 -34 184t-140 57q-19 1 -40 -3t-37 -9t-35 -13t-29 -13q-11 -5 -25 -13t-16 -8v-330h-43v674h-221v38h545v-38h-281v-303q106 55 182 55q56 0 96 -12t63 -34q24 -21 37 -58q13 -36 17 -76t4 -98z"/>
<glyph glyph-name="afii10061" horiz-adv-x="613" unicode="Ќ" d="M401 909l-132 -140h-36l117 140h51zM611 712l-328 -296l348 -416h-55l-324 387l-148 -135v-252h-43v712h43v-409l450 409h57z"/>
<glyph glyph-name="afii10062" d="M419 881q-6 -49 -44 -85t-87 -35q-56 0 -94 32t-45 88h33q21 -87 105 -87q37 0 65 24t34 63h33zM266 148l-278 564h48l251 -518l238 518h46l-297 -636q-20 -40 -52 -64t-67 -24q-17 0 -41 6t-34 16v45q28 -28 70 -28q27 0 52 17t36 42z" unicode="Ў"/>
<glyph glyph-name="afii10145" horiz-adv-x="670" unicode="Џ" d="M356 0v-185h-43v185h-250v712h43v-674h456v674h43v-712h-249z"/>
<glyph glyph-name="afii10017" horiz-adv-x="593" unicode="А" d="M454 266l-130 330q-6 12 -14 38t-12 37l-27 -72l-133 -333h316zM322 712l283 -712h-48l-89 230h-343l-91 -230h-47l289 712h46z"/>
<glyph glyph-name="afii10018" horiz-adv-x="630" unicode="Б" d="M377 358h-271v-320h247q105 0 153 46t48 114q0 64 -44 112t-133 48zM63 712h488v-38h-445v-278h264q107 0 167 -52t60 -145q0 -57 -24 -99t-62 -62t-74 -29t-71 -9h-303v712z"/>
<glyph glyph-name="afii10019" horiz-adv-x="630" unicode="В" d="M105 351v-313h229q220 0 220 161q0 152 -214 152h-235zM105 675v-288h224q201 0 201 143q0 76 -52 110t-135 35h-238zM62 712h293q92 0 155 -45t63 -132q1 -63 -37 -107t-100 -55q72 -8 116 -55t45 -120q0 -103 -83 -158q-61 -40 -177 -40h-275v712z"/>
<glyph glyph-name="afii10020" horiz-adv-x="500" unicode="Г" d="M504 674h-394v-674h-43v712h437v-38z"/>
<glyph glyph-name="afii10021" horiz-adv-x="670" unicode="Д" d="M530 675h-308q-9 -458 -103 -637h411v637zM611 -185v185h-558v-185h-43v223h63q106 196 106 674h394v-674h81v-223h-43z"/>
<glyph glyph-name="afii10022" horiz-adv-x="560" unicode="Е" d="M538 712v-38h-437v-285h410v-38h-410v-313h441v-38h-484v712h480z"/>
<glyph glyph-name="afii10024" horiz-adv-x="980" unicode="Ж" d="M942 0l-303 405l-128 -117v-288h-43v288l-128 117l-303 -405h-53l325 434l-305 278h55l409 -374v374h43v-374l409 374h56l-305 -278l325 -434h-54z"/>
<glyph glyph-name="afii10025" horiz-adv-x="630" unicode="З" d="M589 198q0 -97 -79 -155t-188 -58q-130 0 -206 63t-76 188h41q1 -108 65 -162t178 -53q88 0 156 50t68 127q0 154 -206 154h-5q-63 0 -74 -1v38h74q81 0 137 38t57 117q-1 72 -57 110t-144 37q-214 0 -225 -180h-43q7 110 79 164t189 54q108 -1 176 -47t68 -138 q0 -73 -42 -119t-103 -52v-2q160 -18 160 -173z"/>
<glyph glyph-name="afii10026" horiz-adv-x="670" unicode="И" d="M564 0v657h-3l-444 -657h-53v712h43v-657h3l443 657h54v-712h-43z"/>
<glyph glyph-name="afii10027" horiz-adv-x="670" unicode="Й" d="M564 0v657h-3l-444 -657h-53v712h43v-657h3l443 657h54v-712h-43zM479 881q-6 -49 -44 -85t-87 -35q-56 0 -94 32t-45 88h33q21 -87 105 -87q37 0 65 24t34 63h33z"/>
<glyph glyph-name="afii10028" horiz-adv-x="613" unicode="К" d="M611 712l-328 -296l348 -416h-55l-324 387l-148 -135v-252h-43v712h43v-409l450 409h57z"/>
<glyph glyph-name="afii10029" horiz-adv-x="670" unicode="Л" d="M564 0v674h-320l-15 -448q-1 -43 -7 -80t-22 -74q-14 -37 -42 -59t-67 -22q-48 0 -72 9v40q23 -12 72 -12q25 0 45 20t30 52t15 63t6 63l15 486h405v-712h-43z"/>
<glyph glyph-name="afii10030" horiz-adv-x="809" unicode="М" d="M746 712v-712h-42v533q0 69 6 139q-6 -14 -16 -42t-16 -42l-251 -588h-42l-252 581q-2 4 -33 89q5 -115 5 -137v-533h-42v712h60l227 -528l56 -139q18 51 50 125q164 385 231 542h59z"/>
<glyph glyph-name="afii10031" horiz-adv-x="670" unicode="Н" d="M607 712v-712h-43v353h-457v-353h-43v712h43v-321h457v321h43z"/>
<glyph glyph-name="afii10032" horiz-adv-x="741" unicode="О" d="M369 691q-91 1 -159 -47t-101 -122t-33 -164q0 -151 81 -244t212 -93q132 0 214 92t82 240q-1 150 -83 244t-213 94zM369 729q151 0 245 -105t95 -273q0 -165 -94 -267t-246 -101q-153 1 -245 103t-92 270q0 166 94 270t243 103z"/>
<glyph glyph-name="afii10033" horiz-adv-x="670" unicode="П" d="M607 712v-712h-43v674h-457v-674h-43v712h543z"/>
<glyph glyph-name="afii10034" horiz-adv-x="591" unicode="Р" d="M109 674v-322h221q86 0 127 24q75 44 75 137q0 92 -63 133q-29 20 -57 24t-76 4h-227zM66 712h277q103 0 152 -33q80 -54 80 -164q0 -105 -74 -159q-56 -41 -146 -41h-246v-315h-43v712z"/>
<glyph glyph-name="afii10035" horiz-adv-x="704" unicode="С" d="M673 276q-10 -130 -95 -211t-213 -81q-147 0 -237 102t-89 268q-1 168 91 272t240 103q108 1 194 -63t98 -168h-42q-19 88 -87 140t-165 52q-128 0 -207 -92t-79 -243q0 -149 78 -241t206 -92q113 0 183 71t83 183h41z"/>
<glyph glyph-name="afii10036" horiz-adv-x="519" unicode="Т" d="M533 712v-38h-252v-674h-43v674h-253v38h548z"/>
<glyph glyph-name="afii10037" d="M266 148l-278 564h48l251 -518l238 518h46l-297 -636q-20 -40 -52 -64t-67 -24q-17 0 -41 6t-34 16v45q28 -28 70 -28q27 0 52 17t36 42z" unicode="У"/>
<glyph glyph-name="afii10038" horiz-adv-x="722" unicode="Ф" d="M340 599h-9q-106 0 -182 -65t-76 -176q0 -116 73 -174t194 -66v481zM391 599h-9v-481q121 8 194 66t73 174q0 111 -76 176t-182 65zM382 82v-82h-42v82q-131 0 -221 72t-90 204q0 130 90 204t221 75v75h42v-75q131 -1 221 -75t90 -204q0 -132 -90 -204t-221 -72z"/>
<glyph glyph-name="afii10039" d="M558 712l-254 -346l267 -366h-53l-241 333l-243 -333h-51l268 366l-253 346h52l227 -315l232 315h49z" unicode="Х"/>
<glyph glyph-name="afii10040" horiz-adv-x="685" unicode="Ц" d="M636 -185v185h-573v712h43v-674h456v674h43v-674h74v-223h-43z"/>
<glyph glyph-name="afii10041" horiz-adv-x="630" unicode="Ч" d="M523 0v352q-29 -12 -105 -30t-128 -19q-122 0 -174 50t-53 184v175h43v-162q0 -110 38 -160t142 -50q67 0 135 17t102 32v323h42v-712h-42z"/>
<glyph glyph-name="afii10042" horiz-adv-x="1000" unicode="Ш" d="M63 0v712h43v-674h376v674h43v-674h377v674h42v-712h-881z"/>
<glyph glyph-name="afii10043" horiz-adv-x="1024" unicode="Щ" d="M975 -185v185h-912v712h43v-674h376v674h43v-674h376v674h43v-674h74v-223h-43z"/>
<glyph glyph-name="afii10044" horiz-adv-x="778" unicode="Ъ" d="M711 198q0 64 -42 112t-131 48h-251v-320h257q50 0 86 17t52 44t22 51t7 48zM754 199q0 -60 -20 -102q-20 -41 -54 -61t-66 -28t-67 -8h-303v674h-249v38h292v-316h244q107 0 165 -52t58 -145z"/>
<glyph glyph-name="afii10045" horiz-adv-x="809" unicode="Ы" d="M357 358h-251v-320h257q49 0 85 17t52 44t24 51q6 24 6 48q0 64 -42 112t-131 48zM366 0h-303v712h43v-316h244q106 0 164 -52t59 -145q0 -60 -20 -102q-20 -41 -54 -61t-66 -28t-67 -8zM702 0v712h43v-712h-43z"/>
<glyph glyph-name="afii10046" horiz-adv-x="593" unicode="Ь" d="M357 358h-251v-320h257q49 0 85 17t52 44t24 51q6 24 6 48q0 64 -42 112t-131 48zM366 0h-303v712h43v-316h244q106 0 164 -52t59 -145q0 -60 -20 -102q-20 -41 -54 -61t-66 -28t-67 -8z"/>
<glyph glyph-name="afii10047" horiz-adv-x="704" unicode="Э" d="M665 354q1 -166 -89 -268t-237 -102q-128 0 -213 81t-95 211h41q13 -112 83 -183t183 -71q127 0 205 91t79 240h-376v38h375q-9 135 -87 217t-198 82q-97 0 -165 -52t-87 -140h-42q12 104 98 168t194 63q148 1 240 -103t91 -272z"/>
<glyph glyph-name="afii10048" horiz-adv-x="980" unicode="Ю" d="M608 691q-91 1 -159 -47t-101 -122t-33 -164q0 -151 81 -244t212 -93q132 0 214 92t82 240q0 150 -82 244t-214 94zM608 729q152 0 246 -105t94 -273q0 -165 -94 -267t-246 -101q-152 0 -244 102t-93 268h-164v-353h-43v712h43v-321h165q10 152 102 245t234 93z"/>
<glyph glyph-name="afii10049" horiz-adv-x="630" unicode="Я" d="M527 675h-254q-78 1 -130 -37t-52 -112q0 -82 56 -122t149 -40h231v311zM527 0v327h-259l-236 -327h-51l242 333q-75 12 -125 61t-50 129q0 89 61 139t164 50h297v-712h-43z"/>
<glyph glyph-name="afii10065" horiz-adv-x="500" unicode="а" d="M397 290q-15 -13 -35 -19q-31 -10 -110 -18t-119 -26q-60 -27 -60 -94q0 -52 36 -82t97 -30q82 0 136 51t55 128v90zM499 36v-32q-17 -6 -41 -6q-34 0 -46 18t-13 68v25q-33 -63 -80 -93t-120 -30q-81 0 -125 38t-44 105q0 141 196 157q103 8 128 14t35 21q7 11 7 53 q0 58 -37 88t-108 30q-143 0 -155 -137h-38q5 83 56 127t141 44q103 0 152 -55q14 -17 21 -39q8 -22 8 -36v-44v-265v-22t4 -16t12 -13t21 -4q10 0 26 4z"/>
<glyph glyph-name="afii10066" horiz-adv-x="537" unicode="б" d="M466 247q0 97 -52 163t-141 66t-141 -66t-52 -163t52 -164t141 -67t141 67t52 164zM504 247q0 -112 -62 -188t-169 -76q-81 0 -134 41t-75 105q-22 63 -22 160q0 49 4 95t18 100t36 94t61 70t91 36l98 11q26 3 38 5t26 9t15 20h38q-5 -31 -33 -47t-87 -23l-89 -10 q-46 -5 -81 -32t-55 -68t-32 -83q-11 -42 -13 -88h3q28 60 80 96t123 35q99 1 160 -75t61 -187z"/>
<glyph glyph-name="afii10067" horiz-adv-x="500" unicode="в" d="M245 253h-150v-218h171q68 1 112 31t44 84q0 103 -177 103zM266 477h-171v-189h150q27 0 53 4t52 14q28 10 44 30t16 50q0 46 -43 68t-101 23zM272 0h-219v512h219q76 0 127 -30t51 -96q0 -46 -30 -76t-79 -37v-1q56 -4 89 -38t33 -84q-1 -74 -55 -112t-136 -38z"/>
<glyph glyph-name="afii10068" horiz-adv-x="400" unicode="г" d="M100 477v-477h-40v512h340v-35h-300z"/>
<glyph glyph-name="afii10069" horiz-adv-x="537" unicode="д" d="M415 477h-236v-39q-1 -105 -19 -221t-51 -182h306v442zM485 -161v161h-438v-161h-40v196h60q36 74 54 194t18 239v44h316v-477h70v-196h-40z"/>
<glyph glyph-name="afii10070" horiz-adv-x="519" unicode="е" d="M449 283q1 85 -47 146t-136 61t-135 -58t-56 -149h374zM485 174q-14 -86 -72 -138t-147 -53q-106 0 -170 73t-63 195q1 123 65 199t168 76q108 0 166 -76t58 -188v-14h-415q1 -97 49 -164t143 -67q71 0 117 41t61 116h40z"/>
<glyph glyph-name="afii10072" horiz-adv-x="722" unicode="ж" d="M251 270l-210 -270h-52l234 299l-210 213h55l273 -282v282h40v-282l273 282h55l-210 -213l234 -299h-52l-210 270l-90 -92v-178h-40v178z"/>
<glyph glyph-name="afii10073" horiz-adv-x="473" unicode="з" d="M424 392q0 -46 -30 -78t-78 -39v-1q55 -6 88 -42t33 -88q-1 -74 -59 -116t-140 -43q-97 -1 -153 49t-56 139h40q0 -152 169 -152q62 1 110 35t48 88q0 55 -44 82t-121 27h-46v35h36q68 0 116 24t48 80q-1 48 -41 74t-100 25q-150 0 -161 -128h-41q1 79 57 121t146 42 q79 0 129 -34t50 -100z"/>
<glyph glyph-name="afii10074" horiz-adv-x="519" unicode="и" d="M423 0v460h-1l-317 -460h-49v512h40v-462h1l316 462h50v-512h-40z"/>
<glyph glyph-name="afii10075" horiz-adv-x="519" unicode="й" d="M423 0v460h-1l-317 -460h-49v512h40v-462h1l316 462h50v-512h-40zM394 712q-6 -48 -44 -84t-87 -36q-57 0 -95 32t-45 88h33q22 -87 106 -87q37 1 65 25t34 62h33z"/>
<glyph glyph-name="afii10076" horiz-adv-x="463" unicode="к" d="M478 0h-51l-218 276l-112 -105v-171h-40v512h40v-294l311 294h55l-225 -210z"/>
<glyph glyph-name="afii10077" horiz-adv-x="537" unicode="л" d="M442 0v477h-239l-10 -274q-7 -213 -119 -213q-31 0 -57 10v36q24 -11 56 -11q75 0 82 182l11 305h316v-512h-40z"/>
<glyph glyph-name="afii10078" horiz-adv-x="630" unicode="м" d="M96 476v-476h-40v512h64l196 -465l195 465h64v-512h-40v476h-2l-196 -476h-42l-197 476h-2z"/>
<glyph glyph-name="afii10079" horiz-adv-x="519" unicode="н" d="M423 0v255h-327v-255h-40v512h40v-223h327v223h40v-512h-40z"/>
<glyph glyph-name="afii10080" horiz-adv-x="537" unicode="о" d="M269 492q-89 0 -143 -65t-54 -171q0 -108 54 -172t144 -64q88 0 141 64t53 169q0 109 -53 174t-142 65zM270 527q108 -1 172 -75t64 -199q0 -123 -64 -195t-173 -73t-173 73t-65 198q-1 122 65 196t174 75z"/>
<glyph glyph-name="afii10081" horiz-adv-x="519" unicode="п" d="M423 479h-327v-479h-40v512h407v-512h-40v479z"/>
<glyph glyph-name="afii10082" d="M289 492q-89 0 -139 -64t-50 -176q0 -62 18 -114t64 -87q44 -35 108 -35q84 0 136 65t52 172q0 111 -51 175t-138 64zM100 512v-122q50 136 191 136q105 0 167 -74t62 -199q0 -123 -62 -197t-166 -74q-71 0 -121 35t-69 99v-301h-40v697h38z" unicode="р"/>
<glyph glyph-name="afii10083" horiz-adv-x="519" unicode="с" d="M489 180q-11 -92 -69 -144t-149 -51q-111 1 -173 77t-62 192q0 125 66 199t174 74q89 1 144 -45t65 -127h-41q-8 63 -53 101t-114 37q-91 -1 -145 -65t-55 -172q0 -107 53 -172t140 -65q74 0 122 43t57 118h40z"/>
<glyph glyph-name="afii10084" horiz-adv-x="444" unicode="т" d="M242 477v-477h-40v477h-194v35h428v-35h-194z"/>
<glyph glyph-name="afii10085" horiz-adv-x="444" unicode="у" d="M447 512l-221 -565q-14 -39 -22 -55t-24 -38t-38 -30t-56 -8q-21 0 -39 2v36q16 -3 33 -3q36 -1 57 15t36 52q24 55 35 83l-217 511h45l169 -401q8 -19 23 -64q19 56 24 69l152 396h43z"/>
<glyph glyph-name="afii10086" horiz-adv-x="766" unicode="ф" d="M363 152v207q-1 53 -39 93t-84 40q-84 0 -123 -66t-39 -169q0 -99 42 -167t119 -67q46 1 85 39t39 90zM688 257q0 103 -39 169t-123 66q-46 0 -84 -40t-39 -93v-207q0 -52 39 -90t85 -39q77 -1 119 67t42 167zM730 257q0 -115 -52 -192t-145 -77q-82 0 -130 75v-248h-40 v248q-48 -75 -130 -75q-93 0 -145 77t-52 192q0 117 50 193t144 76q40 0 76 -22t57 -56v264h40v-264q21 34 57 56t76 22q94 0 144 -76t50 -193z"/>
<glyph glyph-name="afii10087" horiz-adv-x="444" unicode="х" d="M432 512l-185 -242l205 -270h-52l-179 240l-180 -240h-48l203 268l-187 244h52l160 -214l163 214h48z"/>
<glyph glyph-name="afii10088" horiz-adv-x="537" unicode="ц" d="M487 -161v161h-432v512h40v-477h327v477h40v-477h65v-196h-40z"/>
<glyph glyph-name="afii10089" horiz-adv-x="489" unicode="ч" d="M392 0v249q-26 -11 -80 -25t-94 -14q-86 0 -125 39t-39 129v134h40v-141q0 -69 32 -97t93 -28q40 0 93 14t80 27v225h40v-512h-40z"/>
<glyph glyph-name="afii10090" horiz-adv-x="768" unicode="ш" d="M55 0v512h40v-477h267v477h40v-477h267v477h40v-512h-654z"/>
<glyph glyph-name="afii10091" horiz-adv-x="789" unicode="щ" d="M734 -161v161h-680v512h40v-477h268v477h40v-477h267v477h40v-477h65v-196h-40z"/>
<glyph glyph-name="afii10092" horiz-adv-x="611" unicode="ъ" d="M541 160q0 60 -46 86t-114 27h-163v-238h183q65 0 103 34t37 91zM583 160q0 -76 -48 -118t-128 -42h-230v477h-178v35h219v-204h173q192 0 192 -148z"/>
<glyph glyph-name="afii10093" horiz-adv-x="630" unicode="ы" d="M238 273h-143v-238h164q65 0 103 34t37 91q0 60 -46 86t-115 27zM265 0h-211v512h41v-204h153q193 0 193 -148q0 -76 -48 -118t-128 -42zM535 0v512h40v-512h-40z"/>
<glyph glyph-name="afii10094" horiz-adv-x="489" unicode="ь" d="M258 273h-163v-238h184q65 0 103 34t37 91q0 60 -46 86t-115 27zM285 0h-231v512h41v-204h173q193 0 193 -148q0 -76 -48 -118t-128 -42z"/>
<glyph glyph-name="afii10095" horiz-adv-x="519" unicode="э" d="M483 254q1 -116 -61 -192t-174 -77q-89 0 -146 49t-71 137h40q11 -71 59 -111t119 -41q87 -1 139 63t54 170h-275v34h274q-8 95 -61 151t-138 56q-67 0 -111 -35t-55 -95h-41q12 77 67 121t141 43q109 0 175 -74t65 -199z"/>
<glyph glyph-name="afii10096" horiz-adv-x="730" unicode="ю" d="M461 492q-89 0 -143 -65t-54 -171q0 -108 54 -172t144 -64q88 0 141 64t53 169q0 109 -53 174t-142 65zM462 527q108 -1 172 -75t64 -199q0 -123 -64 -195t-173 -73q-109 0 -173 73t-65 197h-127v-255h-40v512h40v-223h128q10 109 74 173t164 65z"/>
<glyph glyph-name="afii10097" horiz-adv-x="500" unicode="я" d="M401 477h-165q-69 1 -109 -27t-40 -82q0 -61 43 -89t110 -28h161v226zM401 0v216h-151q-23 0 -34 1l-169 -217h-52l174 223q-63 13 -93 54t-30 91q0 76 50 110t134 34h211v-512h-40z"/>
<glyph glyph-name="afii10071" horiz-adv-x="519" unicode="ё" d="M193 714v-103h-42v103h42zM368 714v-103h-43v103h43zM449 283q1 85 -47 146t-136 61t-135 -58t-56 -149h374zM485 174q-14 -86 -72 -138t-147 -53q-106 0 -170 73t-63 195q1 123 65 199t168 76q108 0 166 -76t58 -188v-14h-415q1 -97 49 -164t143 -67q71 0 117 41t61 116 h40z"/>
<glyph glyph-name="afii10099" horiz-adv-x="519" unicode="ђ" d="M475 108q0 -108 -69 -194t-178 -98v33q92 15 150 85t57 159v92q0 168 -146 168q-85 1 -135 -59t-51 -156v-138h-40v477h-63v35h63v200h39v-200h263v-35h-263v-213h2q20 56 72 89t114 33q43 0 76 -10q32 -10 52 -30t32 -40t18 -46q4 -28 6 -44t1 -38v-70z"/>
<glyph glyph-name="afii10100" horiz-adv-x="400" unicode="ѓ" d="M97 477v-477h-40v512h340v-35h-300zM308 736l-132 -140h-36l117 140h51z"/>
<glyph glyph-name="afii10101" horiz-adv-x="519" unicode="є" d="M489 171q-14 -88 -71 -137t-146 -49q-112 1 -174 77t-61 192q-1 125 65 199t175 74q86 1 141 -43t67 -121h-41q-11 60 -55 95t-111 35q-85 0 -138 -56t-61 -151h274v-34h-275q2 -106 54 -170t139 -63q71 1 119 41t59 111h40z"/>
<glyph glyph-name="afii10102" horiz-adv-x="481" unicode="ѕ" d="M429 363h-41q-6 68 -46 98t-112 30q-64 0 -102 -27t-37 -73q1 -12 3 -22q2 -9 6 -17t11 -16q8 -8 13 -12q6 -4 18 -10t18 -8t22 -6t22 -6t26 -6q18 -4 24 -5q37 -9 53 -13t48 -16q31 -12 47 -26t29 -38t13 -55q0 -67 -56 -109t-146 -42q-97 0 -153 50t-56 138h40 q1 -76 45 -114t126 -38q72 0 116 31t44 82q0 21 -10 39t-23 28t-37 20t-36 13t-40 9q-2 2 -4 2h-4t-5 1q-7 3 -27 7t-31 6q-10 2 -29 8t-29 10t-25 12t-23 18q-9 10 -17 21q-8 12 -12 27t-3 33q-1 65 49 102t138 37t140 -42t53 -121z"/>
<glyph glyph-name="afii10103" horiz-adv-x="168" unicode="і" d="M104 512v-512h-40v512h40zM104 712v-101h-40v101h40z"/>
<glyph glyph-name="afii10104" horiz-adv-x="168" unicode="ї" d="M104 512v-512h-41v512h41zM18 714v-103h-42v103h42zM193 714v-103h-43v103h43z"/>
<glyph glyph-name="afii10105" horiz-adv-x="168" unicode="ј" d="M105 712v-100h-40v100h40zM105 512v-566q0 -72 -24 -102t-93 -31q-4 0 -24 2v34h20q49 1 65 21t16 73v569h40z"/>
<glyph glyph-name="afii10106" horiz-adv-x="778" unicode="љ" d="M707 157q0 110 -161 110h-108v-232h129q66 1 103 33t37 89zM749 157q0 -77 -48 -117t-128 -40h-175v477h-195l-10 -274q-7 -213 -119 -213q-31 0 -57 10v36q24 -11 56 -11q75 0 82 182l11 305h272v-210h118q193 0 193 -145z"/>
<glyph glyph-name="afii10107" horiz-adv-x="778" unicode="њ" d="M546 267h-129v-232h150q66 1 103 33t37 89q0 110 -161 110zM573 0h-196v267h-282v-267h-40v512h40v-210h282v210h40v-210h139q193 0 193 -145q0 -77 -48 -117t-128 -40z"/>
<glyph glyph-name="afii10108" horiz-adv-x="519" unicode="ћ" d="M472 0h-40v185q0 168 -143 168q-85 -1 -135 -59t-51 -156v-138h-40v477h-63v35h63v200h39v-200h263v-35h-263v-213h2q51 122 189 122q179 0 179 -208v-178z"/>
<glyph glyph-name="afii10109" horiz-adv-x="463" unicode="ќ" d="M478 0h-51l-218 276l-112 -105v-171h-40v512h40v-294l311 294h55l-225 -210zM338 736l-132 -140h-36l117 140h51z"/>
<glyph glyph-name="afii10110" horiz-adv-x="444" unicode="ў" d="M447 512l-221 -565q-14 -39 -22 -55t-24 -38t-38 -30t-56 -8q-21 0 -39 2v36q16 -3 33 -3q36 -1 57 15t36 52q24 55 35 83l-217 511h45l169 -401q8 -19 23 -64q19 56 24 69l152 396h43zM358 712q-6 -48 -44 -84t-87 -36q-57 0 -95 32t-45 88h33q22 -87 106 -87 q37 1 65 25t34 62h33z"/>
<glyph glyph-name="afii10193" horiz-adv-x="519" unicode="џ" d="M280 0v-161h-40v161h-184v512h40v-478h327v478h40v-512h-183z"/>
<glyph glyph-name="afii10050" horiz-adv-x="500" unicode="Ґ" d="M106 674v-674h-43v712h394v170h43v-208h-394z"/>
<glyph glyph-name="afii10098" horiz-adv-x="400" unicode="ґ" d="M397 673v-196h-300v-477h-40v512h300v161h40z"/>
</font>
</defs>
</svg>
