<?xml version="1.0" encoding="UTF-8" standalone="no"?>
<!DOCTYPE svg  PUBLIC '-//W3C//DTD SVG 1.1//EN'  'http://www.w3.org/Graphics/SVG/1.1/DTD/svg11.dtd'>
<svg xmlns="http://www.w3.org/2000/svg">
<defs>
<font id="Drugs-Regular" horiz-adv-x="635">
<font-face underline-position="-187" font-weight="250" descent="-200" panose-1="2 0 5 3 6 0 0 2 0 3" units-per-em="1000" unicode-range="U+0020-0491" bbox="-55 -270 1065 980" x-height="500" underline-thickness="62" font-family="Drugs" ascent="800" cap-height="700"/>
<missing-glyph horiz-adv-x="0"/>
<glyph glyph-name=".notdef" horiz-adv-x="0"/>
<glyph glyph-name=".null" horiz-adv-x="0"/>
<glyph glyph-name="nonmarkingreturn" horiz-adv-x="1000"/>
<glyph glyph-name="space" horiz-adv-x="230" unicode=" "/>
<glyph glyph-name="exclam" horiz-adv-x="270" unicode="!" d="M165 20q1 -10 -9 -20t-21 -10t-21 10t-9 20q-1 10 9 20t21 10t21 -10t9 -20zM150 700v-360l-10 -180h-10l-10 180v360h30z"/>
<glyph glyph-name="quotedbl" horiz-adv-x="340" unicode='&quot;' d="M255 450h-10l-10 120v130h30v-130zM95 450h-10l-10 120v130h30v-130z"/>
<glyph glyph-name="numbersign" horiz-adv-x="720" unicode="#" d="M290 480l-80 -240h220l80 240h-220zM20 220l5 20h155l80 240h-155l5 20h155l70 220h30l-70 -220h220l70 220h30l-70 -220h155l-5 -20h-155l-80 -240h155l-5 -20h-155l-70 -220h-30l70 220h-220l-70 -220h-30l70 220h-155z"/>
<glyph glyph-name="dollar" horiz-adv-x="615" unicode="$" d="M320 -120h-20v100q-48 0 -92 16t-74 38t-51 46q-22 23 -33 39l-10 16l15 10l9 -15t29 -35t51 -45t73 -34q46 -16 98 -16q98 0 159 53t61 127q-1 52 -47 88t-112 58t-132 46q-66 23 -112 65t-47 103q0 66 62 121t153 59v100h20v-100q42 0 81 -13t65 -31t46 -36t29 -32 l9 -13l-15 -10q-3 5 -9 13t-26 27q-20 20 -44 35q-23 16 -60 28t-76 12q-90 0 -148 -48t-57 -112q1 -52 47 -88t112 -58t132 -46q66 -23 112 -65t47 -103q0 -82 -68 -141t-177 -59v-100z"/>
<glyph glyph-name="percent" horiz-adv-x="830" unicode="%" d="M470 150q0 74 46 122t114 48t114 -48t46 -122t-46 -122t-114 -48t-114 48t-46 122zM760 150q0 66 -38 108t-92 42t-92 -42t-38 -108t38 -108t92 -42t92 42t38 108zM360 550q0 -74 -46 -122t-114 -48t-114 48t-46 122t46 122t114 48t114 -48t46 -122zM70 550 q0 -66 38 -108t92 -42t92 42t38 108t-38 108t-92 42t-92 -42t-38 -108zM190 0l420 700h30l-420 -700h-30z"/>
<glyph glyph-name="ampersand" horiz-adv-x="665" unicode="&amp;" d="M275 0q41 0 79 14t62 34t43 39q19 20 27 34l9 14l-250 265q-7 -2 -18 -8t-39 -26t-50 -44t-40 -62t-18 -80q0 -76 55 -128t140 -52zM570 320q0 -49 -11 -94t-23 -66l-11 -20l130 -140h-35l-110 120q-4 -6 -10 -16t-28 -33q-22 -25 -47 -43t-66 -33t-84 -15q-99 0 -162 58 t-63 142q0 42 18 82t44 66t51 47q26 21 44 31l18 9v5q-9 8 -21 22t-33 55q-21 40 -21 73q0 62 52 106t138 44q36 0 69 -12t54 -27q21 -16 37 -32t23 -27l7 -12l-15 -10q-3 4 -8 11t-22 24t-36 30t-49 24t-60 11q-72 0 -116 -38t-44 -92q0 -32 20 -70t40 -59l20 -21l250 -265 q40 65 40 165h20z"/>
<glyph glyph-name="quotesingle" horiz-adv-x="180" unicode="&apos;" d="M95 450h-10l-10 120v130h30v-130z"/>
<glyph glyph-name="parenleft" horiz-adv-x="360" unicode="(" d="M95 270q0 92 24 178q25 86 59 144t69 102t59 66l24 20l10 -15q-10 -8 -24 -22q-14 -15 -51 -63t-65 -102t-52 -137q-23 -84 -23 -171t22 -170q21 -83 53 -139t64 -100t54 -65l22 -21l-10 -15q-10 8 -26 22t-56 62t-71 104q-31 54 -57 142t-25 180z"/>
<glyph glyph-name="parenright" horiz-adv-x="360" unicode=")" d="M265 270q0 -92 -24 -178q-25 -86 -59 -144t-69 -102t-59 -66l-24 -20l-10 15q10 8 24 22q14 15 51 63t65 102t52 137q23 84 23 171t-22 170q-21 83 -53 139t-64 100t-54 65l-22 21l10 15q10 -8 26 -22t56 -62t71 -104q31 -54 57 -142t25 -180z"/>
<glyph glyph-name="asterisk" horiz-adv-x="425" unicode="*" d="M215 506h-5l-95 -131l-20 15l95 130l-140 45l5 25l145 -45v155h25v-155l145 45l5 -25l-140 -45l95 -130l-20 -15z"/>
<glyph glyph-name="plus" horiz-adv-x="515" unicode="+" d="M475 365v-25h-205v-210h-25v210h-205v25h205v210h25v-210h205z"/>
<glyph glyph-name="comma" horiz-adv-x="190" unicode="," d="M95 -10q-11 0 -21 10t-9 20q-1 10 9 20t21 10q12 0 21 -10t9 -25q1 -23 -7 -45t-19 -36t-23 -24t-18 -16l-8 -4l-10 15q6 4 15 11q9 8 25 30t15 44z"/>
<glyph glyph-name="hyphen" horiz-adv-x="490" unicode="-" d="M450 365v-25h-410v25h410z"/>
<glyph glyph-name="period" horiz-adv-x="190" unicode="." d="M125 20q1 -10 -9 -20t-21 -10t-21 10t-9 20q-1 10 9 20t21 10t21 -10t9 -20z"/>
<glyph glyph-name="slash" horiz-adv-x="415" unicode="/" d="M40 -50l310 800h25l-310 -800h-25z"/>
<glyph glyph-name="zero" horiz-adv-x="720" unicode="0" d="M625 350q0 158 -79 254t-186 96t-186 -96t-79 -254t79 -254t186 -96t186 96t79 254zM65 350q0 166 87 268t208 102t208 -102t87 -268t-87 -268t-208 -102t-208 102t-87 268z"/>
<glyph glyph-name="one" horiz-adv-x="365" unicode="1" d="M40 550l190 150h20v-700h-30v655h-5l-160 -125z"/>
<glyph glyph-name="two" horiz-adv-x="580" unicode="2" d="M505 520q0 -44 -23 -96q-24 -52 -60 -98t-80 -93q-44 -46 -88 -83q-44 -38 -82 -66q-36 -28 -59 -44l-23 -15v-5h440l-5 -20h-485v20q18 12 47 32t104 80t133 118t104 132q47 76 47 138q-1 76 -57 128t-148 52q-40 0 -76 -12t-60 -29t-44 -33q-18 -16 -26 -29l-9 -12 l-15 10q4 5 10 13t28 30t46 38t64 30t82 14q106 0 170 -58t65 -142z"/>
<glyph glyph-name="three" horiz-adv-x="575" unicode="3" d="M500 700v-25l-270 -265v-5q20 5 40 5q117 0 186 -61t69 -154t-69 -154t-186 -61q-45 0 -86 13t-68 31q-28 18 -48 36t-29 32l-9 13l15 10q3 -5 9 -13t27 -27q21 -20 45 -35q24 -16 63 -28t81 -12q103 0 164 55t61 140t-61 140t-164 55q-18 0 -36 -4t-29 -8l-10 -3l-10 19 l285 281v5h-410v20h440z"/>
<glyph glyph-name="four" horiz-adv-x="630" unicode="4" d="M40 200v25l410 475h30v-480h130l-5 -20h-125v-200h-30v200h-410zM450 220v440h-5l-375 -435v-5h380z"/>
<glyph glyph-name="five" horiz-adv-x="595" unicode="5" d="M150 700h370l-5 -20h-340l-40 -275h5q50 35 150 35q114 0 184 -66t71 -164q-1 -98 -71 -164t-184 -66q-45 0 -86 13t-68 31q-28 18 -48 36t-29 32l-9 13l15 10q3 -5 9 -13t27 -27q21 -20 45 -35q24 -16 63 -28t81 -12q100 0 162 60t63 150q-1 90 -63 150t-162 60 q-48 0 -90 -12t-61 -26l-19 -12l-20 10z"/>
<glyph glyph-name="six" horiz-adv-x="615" unicode="6" d="M95 295v-5q0 -134 66 -212t164 -78q90 0 150 60t60 150t-60 150t-150 60q-39 0 -77 -13t-64 -31t-48 -36q-21 -18 -31 -32zM325 440q104 0 172 -66t68 -164t-68 -164t-172 -66q-113 0 -187 86t-73 234q1 172 111 284t293 126l6 -16q-179 -25 -275 -119t-105 -245h5 q3 4 10 12t29 26q23 20 47 34t62 26t77 12z"/>
<glyph glyph-name="seven" horiz-adv-x="530" unicode="7" d="M30 680v20h460v-20l-310 -680h-30l310 675v5h-430z"/>
<glyph glyph-name="eight" horiz-adv-x="640" unicode="8" d="M135 545q-1 -36 19 -66q20 -31 48 -47t56 -28t48 -15l19 -4q8 1 20 4t44 15q33 12 57 28t44 47q20 30 20 66q0 67 -50 111t-135 44q-87 0 -139 -44t-51 -111zM370 380v-5l12 -3t30 -10t41 -16q20 -10 44 -26q23 -16 41 -36q18 -19 30 -46t12 -58q0 -80 -74 -140t-191 -60 q-111 0 -183 60t-72 140q0 46 20 82t50 56t60 34t50 18l20 5v5q-6 2 -16 6t-38 18q-27 14 -47 31t-37 47t-17 63q-1 75 59 125t161 50q95 0 153 -50t57 -125q0 -37 -17 -67q-18 -30 -42 -48t-48 -29q-24 -12 -41 -17zM550 180q0 44 -25 80t-61 54t-72 32q-36 12 -62 16 l-25 3q-5 -1 -13 -2t-30 -7q-23 -6 -44 -14t-46 -22q-26 -16 -44 -34t-30 -46t-13 -60q1 -72 65 -126t165 -54q103 0 169 54t66 126z"/>
<glyph glyph-name="nine" horiz-adv-x="615" unicode="9" d="M520 405v5q0 134 -66 212t-164 78q-90 0 -150 -60t-60 -150t60 -150t150 -60q39 0 77 13q39 13 65 31t47 36t31 32zM290 260q-104 0 -172 66t-68 164t68 164t172 66q112 0 186 -86t74 -234q0 -172 -110 -284t-294 -126l-6 16q180 25 276 119t104 245h-5q-3 -4 -10 -12 t-29 -26q-22 -20 -46 -34t-63 -26q-38 -12 -77 -12z"/>
<glyph glyph-name="colon" horiz-adv-x="190" unicode=":" d="M125 480q1 -10 -9 -20t-21 -10t-21 10t-9 20q-1 10 9 20t21 10t21 -10t9 -20zM125 20q1 -10 -9 -20t-21 -10t-21 10t-9 20q-1 10 9 20t21 10t21 -10t9 -20z"/>
<glyph glyph-name="semicolon" horiz-adv-x="190" unicode=";" d="M95 -10q-11 0 -21 10t-9 20q-1 10 9 20t21 10q12 0 21 -10t9 -25q1 -23 -7 -45t-19 -36t-23 -24t-18 -16l-8 -4l-10 15q6 4 15 11q9 8 25 30t15 44zM125 480q1 -10 -9 -20t-21 -10t-21 10t-9 20q-1 10 9 20t21 10t21 -10t9 -20z"/>
<glyph glyph-name="less" horiz-adv-x="500" unicode="&lt;" d="M480 20l-440 200v25l440 200v-30l-410 -180v-5l410 -180v-30z"/>
<glyph glyph-name="equal" horiz-adv-x="490" unicode="=" d="M450 260v-25h-410v25h410zM450 465v-25h-410v25h410z"/>
<glyph glyph-name="greater" horiz-adv-x="500" unicode="&gt;" d="M480 220l-440 -200v30l410 180v5l-410 180v30l440 -200v-25z"/>
<glyph glyph-name="question" horiz-adv-x="535" unicode="?" d="M275 20q1 -10 -9 -20t-21 -10t-21 10t-9 20q-1 10 9 20t21 10t21 -10t9 -20zM485 510q-1 -41 -13 -76t-32 -59q-20 -23 -44 -43t-48 -31t-43 -19q-20 -8 -33 -10l-12 -2l-10 -110h-10l-10 125q9 1 24 4t54 18q38 15 68 37t54 66t25 100q0 80 -58 135t-147 55 q-40 0 -76 -12t-60 -29t-44 -33q-18 -16 -26 -29l-9 -12l-15 10q4 5 10 13t28 30t46 38t64 30t82 14q103 0 169 -61t66 -149z"/>
<glyph glyph-name="at" horiz-adv-x="1040" unicode="@" d="M535 70q31 0 61 16t44 32l15 17v260q-6 7 -16 18q-9 11 -41 29t-63 18q-70 0 -115 -52t-45 -143t45 -143t115 -52zM975 300q-1 -122 -51 -186t-129 -64q-33 0 -65 16t-46 32l-14 17h-5q-7 -7 -17 -18t-44 -29t-69 -18q-84 0 -137 58t-53 157t53 157t137 58q31 0 60 -12 t42 -26l13 -12h5q1 9 3 19t4 15l3 6h30q-10 -25 -10 -75v-260q5 -7 15 -18t38 -29t57 -18q65 0 107 58t43 172q-1 174 -121 292t-299 118q-174 0 -297 -127t-123 -313q0 -188 128 -314t322 -126q63 0 125 18t94 34l31 18l10 -20q-13 -8 -35 -20t-90 -30q-68 -20 -135 -20 q-208 0 -344 132t-136 328q0 194 131 327t319 133q193 0 321 -124t129 -306z"/>
<glyph glyph-name="A" horiz-adv-x="700" unicode="A" d="M343 650l-183 -430h370l-183 430h-4zM625 0l-85 200h-390l-85 -200h-25l300 700h20l300 -700h-35z"/>
<glyph glyph-name="B" horiz-adv-x="675" unicode="B" d="M365 680h-220v-290h220q77 0 123 42t47 103q-1 61 -47 103t-123 42zM395 370h-250v-350h250q88 0 144 51t56 124t-56 124t-144 51zM115 0v700h250q91 0 145 -48t55 -117q-1 -32 -13 -59t-30 -42q-18 -16 -34 -26q-18 -10 -30 -14l-13 -4v-5q7 -1 19 -3t44 -16 q30 -14 54 -32t44 -56q20 -37 19 -83q0 -81 -64 -138t-166 -57h-280z"/>
<glyph glyph-name="C" horiz-adv-x="725" unicode="C" d="M680 145l15 -10q-3 -7 -9 -17t-32 -37q-25 -27 -55 -47t-81 -37t-108 -17q-148 0 -246 104t-99 266q1 162 99 266t246 104q52 0 99 -15t77 -36t52 -43t32 -36l10 -15l-15 -10l-9 15t-30 32q-24 23 -51 41q-27 19 -71 33t-94 14q-134 0 -224 -98t-91 -252q1 -154 91 -252 t224 -98q54 0 102 15t78 36t50 43q22 22 31 36z"/>
<glyph glyph-name="D" horiz-adv-x="730" unicode="D" d="M290 680h-145v-660h145q153 0 249 93t96 237t-96 237t-249 93zM115 700h175q167 0 271 -99t104 -251t-104 -251t-271 -99h-175v700z"/>
<glyph glyph-name="E" horiz-adv-x="615" unicode="E" d="M145 350v-330h440v-20h-470v700h450l-5 -20h-415v-310h310l-5 -20h-305z"/>
<glyph glyph-name="F" horiz-adv-x="575" unicode="F" d="M145 330v-330h-30v700h440l-5 -20h-405v-330h320l-5 -20h-315z"/>
<glyph glyph-name="G" horiz-adv-x="790" unicode="G" d="M670 95h-5q-3 -5 -9 -13t-30 -27q-24 -20 -51 -35q-27 -16 -71 -28t-94 -12q-148 0 -246 104t-99 266q1 162 99 266t246 104q52 0 99 -15t77 -36t52 -43t32 -36l10 -15l-15 -10l-9 15t-30 32q-24 23 -51 41q-27 19 -71 33t-94 14q-134 0 -224 -98t-91 -252 q1 -154 91 -252t224 -98q50 0 94 13t72 31t49 36t31 32l9 13v215h-225v20h255v-360h-15z"/>
<glyph glyph-name="H" horiz-adv-x="760" unicode="H" d="M145 700v-320h470v320h30v-700h-30v360h-470v-360h-30v700h30z"/>
<glyph glyph-name="I" horiz-adv-x="260" unicode="I" d="M145 700v-700h-30v700h30z"/>
<glyph glyph-name="J" horiz-adv-x="275" unicode="J" d="M-50 -210v20q80 0 130 66t50 195v629h30v-629q0 -137 -58 -209t-152 -72z"/>
<glyph glyph-name="K" horiz-adv-x="655" unicode="K" d="M370 370l265 -370h-35l-260 360h-195v-360h-30v700h30v-320h205l230 320h25z"/>
<glyph glyph-name="L" horiz-adv-x="585" unicode="L" d="M145 700v-680h420l-5 -20h-445v700h30z"/>
<glyph glyph-name="M" horiz-adv-x="940" unicode="M" d="M790 650l-320 -540h-15l-315 540h-5v-650h-20v700h30l320 -550h5l325 550h30v-700h-30v650h-5z"/>
<glyph glyph-name="N" horiz-adv-x="760" unicode="N" d="M135 660v-660h-20v700h30l475 -660h5v660h20v-700h-30l-475 660h-5z"/>
<glyph glyph-name="O" horiz-adv-x="820" unicode="O" d="M725 350q0 155 -90.5 252.5t-224.5 97.5t-224.5 -97.5t-90.5 -252.5t90.5 -252.5t224.5 -97.5t224.5 97.5t90.5 252.5zM65 350q0 163 98.5 266.5t246.5 103.5t246.5 -103.5t98.5 -266.5t-98.5 -266.5t-246.5 -103.5t-246.5 103.5t-98.5 266.5z"/>
<glyph glyph-name="P" horiz-adv-x="665" unicode="P" d="M365 260h-220v-260h-30v700h250q110 0 180 -64t70 -156t-70 -156t-180 -64zM365 280q96 0 158 58t62 142t-62 142t-158 58h-220v-400h220z"/>
<glyph glyph-name="Q" horiz-adv-x="810" unicode="Q" d="M725 350q-1 154 -91 252t-224 98t-224 -98t-91 -252q1 -154 91 -252t224 -98t224 98t91 252zM65 350q1 162 99 266t246 104t246 -104t99 -266q0 -76 -21 -138t-51 -99q-31 -37 -61 -61t-51 -33l-21 -9q4 -5 12 -13t38 -30q28 -21 60 -39t84 -35t106 -23v-30 q-63 8 -119 28q-55 20 -91 42t-62 42q-26 21 -37 34l-11 14q-55 -20 -120 -20q-148 0 -246 104t-99 266z"/>
<glyph glyph-name="R" horiz-adv-x="675" unicode="R" d="M355 300q96 0 153 53t57 137t-57 137t-153 53h-210v-380h210zM405 280h-260v-280h-30v700h240q110 0 175 -59t65 -151q-1 -48 -17 -86t-40 -58t-46 -34q-24 -14 -40 -18l-17 -4v-5l200 -285h-35z"/>
<glyph glyph-name="S" horiz-adv-x="615" unicode="S" d="M85 540q-1 72 65 126t170 54q42 0 81 -13t65 -31t46 -36t29 -32l9 -13l-15 -10q-3 5 -9 13t-26 27q-20 20 -44 35q-23 16 -60 28t-76 12q-90 0 -148 -48t-57 -112q1 -52 47 -88t112 -58t132 -46q66 -23 112 -65t47 -103q0 -82 -69 -141t-181 -59q-55 0 -103 16t-78 38 t-53 46q-22 23 -31 39l-10 16l15 10l9 -15t29 -35t51 -45t73 -34q46 -16 98 -16q98 0 159 53t61 127q-1 52 -47 88t-112 58t-132 46q-66 23 -112 65t-47 103z"/>
<glyph glyph-name="T" horiz-adv-x="590" unicode="T" d="M280 0v680h-260v20h550l-5 -20h-255v-680h-30z"/>
<glyph glyph-name="U" horiz-adv-x="760" unicode="U" d="M380 0q110 0 177.5 70.5t67.5 189.5v440h20v-440q0 -126 -74 -203t-191 -77t-191 77t-74 203v440h30v-440q0 -118 66 -189t169 -71z"/>
<glyph glyph-name="V" horiz-adv-x="660" unicode="V" d="M337 50l268 650h25l-290 -700h-20l-290 700h35l268 -650h4z"/>
<glyph glyph-name="W" horiz-adv-x="1015" unicode="W" d="M505 655l-210 -655h-30l-225 700h30l210 -655h5l210 655h30l210 -655h5l210 655h25l-225 -700h-30l-210 655h-5z"/>
<glyph glyph-name="X" d="M570 0l-255 335h-5l-255 -335h-25l270 355l-255 345h35l235 -320h5l235 320h25l-250 -340l275 -360h-35z" unicode="X"/>
<glyph glyph-name="Y" horiz-adv-x="610" unicode="Y" d="M320 240v-240h-30v240l-270 460h35l253 -430h4l253 430h25z"/>
<glyph glyph-name="Z" horiz-adv-x="580" unicode="Z" d="M530 680l-465 -655v-5h485l-5 -20h-515v20l465 655v5h-445v20h480v-20z"/>
<glyph glyph-name="bracketleft" horiz-adv-x="345" unicode="[" d="M315 760v-20h-170v-940h170v-20h-200v980h200z"/>
<glyph glyph-name="backslash" horiz-adv-x="415" unicode="\" d="M65 750l310 -800h-25l-310 800h25z"/>
<glyph glyph-name="bracketright" horiz-adv-x="345" unicode="]" d="M30 740v20h200v-980h-200v20h170v940h-170z"/>
<glyph glyph-name="asciicircum" horiz-adv-x="445" unicode="^" d="M40 410l170 290h25l170 -290h-30l-150 255h-5l-150 -255h-30z"/>
<glyph glyph-name="underscore" horiz-adv-x="440" unicode="_" d="M420 -100v-25h-400v25h400z"/>
<glyph glyph-name="grave" horiz-adv-x="220" unicode="`" d="M75 700l105 -190h-20l-120 190h35z"/>
<glyph glyph-name="a" horiz-adv-x="565" unicode="a" d="M245 5q53 0 103 29t74 58l23 28v120q-11 6 -30.5 15t-72.5 24.5t-97 15.5q-81 0 -125.5 -40t-44.5 -105t44.5 -105t125.5 -40zM475 305v-185q0 -33 3.5 -63t7.5 -43l4 -14h-30q-10 45 -10 90h-5q-3 -4 -9 -11t-26.5 -25.5t-42.5 -32t-55 -25t-67 -11.5q-95 0 -147.5 45.5 t-52.5 119.5t52.5 119.5t147.5 45.5q44 0 94 -12.5t78 -24.5l28 -13v40q0 89 -48.5 139.5t-131.5 50.5q-44 0 -84 -18.5t-58 -37.5l-18 -19l-15 10q3 3 8 9t22 20.5t36 26t48.5 20.5t60.5 9q97 0 153.5 -56.5t56.5 -153.5z"/>
<glyph glyph-name="b" d="M330 5q95 0 160 69t65 176t-65 176t-160 69q-53 0 -103 -29t-73 -58l-24 -28v-260l9 -12q7 -8 27 -28t42 -35t55 -27t67 -13zM130 415h5q3 4 9 11t25 24t41 30t54 24t66 11q109 0 182 -75t73 -190t-73 -190t-182 -75q-34 0 -67 11t-56 26q-23 14 -41 30t-27 27l-9 11h-5 q-1 -20 -3 -42t-4 -36l-3 -12h-30q15 45 15 120v600h30v-305z" unicode="b"/>
<glyph glyph-name="c" horiz-adv-x="530" unicode="c" d="M490 420l-15 -10q-3 3 -8 9q-5 7 -22 21t-36 26t-49 20q-30 9 -60 9q-92 0 -156 -69t-64 -176t64 -176t156 -69q36 0 70 11t55 26q23 14 39 30t24 27l7 11l15 -10q-2 -4 -8 -12t-26 -28t-42 -35t-58 -27t-76 -13q-106 0 -178 75t-72 190t72 190t178 75q34 0 66 -10 q32 -9 53 -23q23 -14 39 -28t24 -24z"/>
<glyph glyph-name="d" d="M305 5q53 0 103 29t74 58l23 28v260l-9 12t-26 28t-43 35q-22 15 -55 27t-67 13q-95 0 -160 -69t-65 -176t65 -176t160 -69zM500 415h5v305h30v-600q-1 -33 3 -63t8 -43l4 -14h-30q-10 45 -10 90h-5q-3 -4 -9 -11t-26 -25t-43 -32q-22 -14 -55 -26t-67 -11 q-109 0 -182 75t-73 190t73 190t182 75q34 -1 66 -11q33 -10 55 -24t40 -30q18 -14 26 -24z" unicode="d"/>
<glyph glyph-name="e" horiz-adv-x="575" unicode="e" d="M80 260h420q0 99 -63 167t-147 68t-147 -68t-63 -167zM525 240h-445q0 -100 64.5 -167.5t155.5 -67.5q36 0 69.5 11t55.5 26t38.5 30.5t24.5 26.5l7 11l15 -10q-3 -5 -8.5 -12.5t-25 -27.5t-42 -35t-59 -27.5t-75.5 -12.5q-106 0 -178 75t-72 190q0 114 70.5 189.5 t169.5 75.5t169.5 -73.5t70.5 -181.5z"/>
<glyph glyph-name="f" horiz-adv-x="370" unicode="f" d="M130 490v50q0 78 46 126t114 49q36 -1 68 -17t48 -32l14 -16l-15 -10q-5 6 -15 15t-39 25q-30 16 -61 15q-54 0 -92 -43t-38 -112v-50h180l-5 -20h-175v-470h-30v470h-110v20h110z"/>
<glyph glyph-name="g" d="M305 494q-93 0 -159 -68t-66 -167t66 -167t159 -68q53 0 103 29t74 57l23 29v240q-3 5 -9 13t-26 27q-20 20 -43 35q-22 16 -55 28t-67 12zM505 10v94h-5q-3 -4 -9 -11t-25 -24q-18 -17 -40 -30t-54 -24t-67 -11q-109 0 -182 73t-73 182t73 182t182 73q34 0 67 -11 t56 -26t41 -31t27 -26l9 -11h5q0 21 2 43t6 34l2 13h30q-15 -45 -15 -120v-369q0 -102 -66 -166t-174 -64q-36 0 -69 10t-54 24t-37 28t-23 23l-7 10l15 10l6 -9t21 -20t35 -26t48 -21t65 -9q94 0 152 58t58 152z" unicode="g"/>
<glyph glyph-name="h" horiz-adv-x="625" unicode="h" d="M100 0v720h30v-305h5q3 4 9 11t25 24t41 30t54 24t66 11q93 0 149 -54t56 -141v-320h-30v320q0 75 -50 125t-125 50q-53 0 -103 -29t-73 -58l-24 -28v-380h-30z"/>
<glyph glyph-name="i" horiz-adv-x="230" unicode="i" d="M145 680q1 -10 -9 -20t-21 -10t-21 10t-9 20q-1 10 9 20t21 10t21 -10t9 -20zM130 500v-500h-30v500h30z"/>
<glyph glyph-name="j" horiz-adv-x="245" unicode="j" d="M160 680q0 -10 -10 -20t-20 -10t-20 10t-10 20t10 20t20 10t20 -10t10 -20zM145 500v-480q0 -110 -54 -170t-146 -60v20q77 0 123 54t47 156v480h30z"/>
<glyph glyph-name="k" horiz-adv-x="520" unicode="k" d="M315 265l185 -265h-35l-175 250h-160v-250h-30v720h30v-450h165l155 230h25z"/>
<glyph glyph-name="l" horiz-adv-x="230" unicode="l" d="M100 720h30v-720h-30v720z"/>
<glyph glyph-name="m" horiz-adv-x="930" unicode="m" d="M100 0v380q0 33 -4 63t-8 43l-3 14h30q10 -45 10 -90h5q2 4 8 11t24 25t36 32t48 26t59 11q35 0 65 -12q30 -13 49 -29q18 -16 31 -33t18 -29l6 -12h5l9 12t24 28t39 35q20 15 50 27t59 13q76 0 128 -55t52 -140v-320h-30v320q0 77 -44 126t-106 49q-28 0 -58 -13 q-30 -14 -51 -32t-37 -36t-26 -31l-8 -13q5 -30 5 -50v-320h-30v320q0 77 -44 126t-106 49q-47 0 -91 -29t-64 -58l-20 -28v-380h-30z"/>
<glyph glyph-name="n" horiz-adv-x="625" unicode="n" d="M100 0v380q0 33 -4 63t-8 43l-3 14h30q10 -45 10 -90h5q3 4 9 11t26.5 25.5t42.5 32t55 25t67 11.5q93 0 149 -54t56 -141v-320h-30v320q0 75 -50 125t-125 50q-53 0 -103 -29t-73 -58l-24 -28v-380h-30z"/>
<glyph glyph-name="o" horiz-adv-x="600" unicode="o" d="M50 250q0 115 72 190t178 75t178 -75t72 -190t-72 -190t-178 -75t-178 75t-72 190zM520 250q0 107 -64 176t-156 69t-156 -69t-64 -176t64 -176t156 -69t156 69t64 176z"/>
<glyph glyph-name="p" d="M330 495q-53 0 -103 -29t-73 -58l-24 -28v-260l9 -12q7 -8 27 -28t42 -35t55 -27t67 -13q95 0 160 69t65 176t-65 176t-160 69zM135 85h-5v-285h-30v580q0 33 -4 63t-8 43l-3 14h30q10 -45 10 -90h5q3 4 9 11q7 7 27 25t42 32t55 26t67 11q109 0 182 -75t73 -190 t-73 -190t-182 -75q-34 1 -66 11t-54 24t-40 30q-18 14 -26 24z" unicode="p"/>
<glyph glyph-name="q" d="M305 495q-95 0 -160 -69t-65 -176t65 -176t160 -69q53 0 103 29t74 58l23 28v260l-9 12t-26 28t-43 35q-22 15 -55 27t-67 13zM505 85h-5q-3 -4 -9 -11t-25 -24q-18 -17 -40 -30t-54 -24t-67 -11q-109 0 -182 75t-73 190t73 190t182 75q53 -1 103 -27t74 -52l23 -26h5 q0 20 2 42t6 36l2 12h30q-15 -45 -15 -120v-580h-30v285z" unicode="q"/>
<glyph glyph-name="r" horiz-adv-x="385" unicode="r" d="M375 505l-10 -25q-25 10 -55 10q-31 0 -61 -12q-31 -12 -51 -27q-20 -16 -36 -32t-24 -27l-8 -12v-380h-30v380q0 33 -4 63t-8 43l-3 14h30q10 -45 10 -90h5q2 4 8 11t24 25t38 32t49 26q30 12 61 11q18 -1 34 -3t24 -4z"/>
<glyph glyph-name="s" horiz-adv-x="470" unicode="s" d="M430 130q0 -60 -54 -102t-146 -43q-36 0 -70 12q-34 13 -56 29t-40 33t-26 29l-8 12l15 10q3 -4 8 -11t23 -25t37 -32t51 -26t66 -11q78 1 124 37t46 88q0 40 -35 66t-85 39t-100 27t-85 44t-35 79q0 52 49 91t131 39q49 1 94 -21t66 -43l20 -21l-15 -10l-8 8t-21 18 t-35 23q-17 10 -45 18t-56 8q-68 0 -109 -33t-41 -77q0 -41 35 -67t85 -38q50 -13 100 -27q50 -15 85 -45t35 -78z"/>
<glyph glyph-name="t" horiz-adv-x="430" unicode="t" d="M160 480v-320q0 -69 38 -112t92 -43q31 -1 60 13t42 28l13 14l15 -10q-6 -7 -16 -18t-44 -29t-70 -18q-68 1 -114 49t-46 126v320h-110v20h110l15 150h15v-150h180l-5 -20h-175z"/>
<glyph glyph-name="u" d="M535 500v-380q0 -33 3.5 -63t7.5 -43l4 -14h-30q-10 45 -10 90h-5q-3 -4 -9 -11t-26.5 -25.5t-42.5 -32t-55 -25t-67 -11.5q-93 0 -149 54t-56 141v320h30v-320q0 -75 50 -125t125 -50q53 0 103 29t74 58l23 28v380h30z" unicode="u"/>
<glyph glyph-name="v" horiz-adv-x="510" unicode="v" d="M260 46l205 454h25l-225 -500h-20l-225 500h35l200 -454h5z"/>
<glyph glyph-name="w" horiz-adv-x="775" unicode="w" d="M565 40l155 460h25l-170 -500h-30l-155 460h-5l-155 -460h-30l-170 500h30l155 -460h5l155 460h30l155 -460h5z"/>
<glyph glyph-name="x" horiz-adv-x="485" unicode="x" d="M445 500l-190 -240l210 -260h-35l-190 235h-5l-190 -235h-25l205 255l-195 245h35l175 -220h5l175 220h25z"/>
<glyph glyph-name="y" d="M505 10v85h-5q-3 -4 -9 -11t-25 -24t-40.5 -30t-54 -24t-66.5 -11q-93 0 -149 54t-56 141v310h30v-310q0 -75 50 -125t125 -50q34 0 67 12t56 28.5t41 33.5t27 29l9 12v370h30v-490q0 -102 -66 -166t-174 -64q-36 0 -69 10t-54 24t-37 27.5t-23 23.5l-7 10l15 10 q2 -3 6.5 -9t20.5 -20.5t34.5 -26t49 -20.5t64.5 -9q94 0 152 58t58 152z" unicode="y"/>
<glyph glyph-name="z" horiz-adv-x="460" unicode="z" d="M430 500v-25l-375 -450v-5h385l-5 -20h-415v25l375 450v5h-355v20h390z"/>
<glyph glyph-name="braceleft" horiz-adv-x="370" unicode="{" d="M100 272v-4q2 0 8 -2t20 -12t24 -22t20 -36q8 -24 8 -56v-200q0 -68 34 -104t96 -36h30v-20h-30q-76 0 -118 42t-42 118v200q0 120 -110 120v20q110 0 110 120v200q0 76 42 118t118 42h30v-20h-30q-62 0 -96 -36t-34 -104v-200q0 -32 -8 -56t-20 -37t-24 -21t-20 -12z "/>
<glyph glyph-name="bar" horiz-adv-x="280" unicode="|" d="M155 820v-940h-30v940h30z"/>
<glyph glyph-name="braceright" horiz-adv-x="370" unicode="}" d="M270 268v4q-2 0 -8 2t-20 12t-24 22t-20 36q-8 24 -8 56v200q0 68 -34 104t-96 36h-30v20h30q76 0 118 -42t42 -118v-200q0 -120 110 -120v-20q-110 0 -110 -120v-200q0 -76 -42 -118t-118 -42h-30v20h30q62 0 96 36t34 104v200q0 32 8 56t20 37t24 21t20 12z"/>
<glyph glyph-name="asciitilde" horiz-adv-x="510" unicode="~" d="M60 305l-20 10q2 5 4 13t12 28t22 37q12 16 35 29q22 13 47 13q28 0 56 -17t45 -38q18 -21 42 -38t47 -17q33 0 58 25t34 50l8 25l20 -10q-2 -5 -4 -13t-12 -28t-22 -37q-12 -16 -35 -29q-22 -13 -47 -13q-28 0 -56 17t-45 38q-18 21 -42 38t-47 17q-33 0 -58 -25 t-34 -50z"/>
<glyph glyph-name="nbspace" horiz-adv-x="230" unicode=" "/>
<glyph glyph-name="exclamdown" horiz-adv-x="270" unicode="¡" d="M165 480q1 -10 -9 -20t-21 -10t-21 10t-9 20q-1 10 9 20t21 10t21 -10t9 -20zM150 160v-360h-30v360l10 180h10z"/>
<glyph glyph-name="cent" horiz-adv-x="530" unicode="¢" d="M300 -110h-20v96q-100 8 -165 81t-65 183q0 108 66 182t164 82v96h20v-95q34 0 66 -10q32 -9 53 -23q23 -14 39 -28t24 -24l8 -10l-15 -10q-3 3 -8 9q-5 7 -22 21t-36 26t-49 20q-30 9 -60 9q-92 0 -156 -69t-64 -176t64 -176t156 -69q36 0 70 11t55 26q23 14 39 30 t24 27l7 11l15 -10q-2 -4 -8 -12t-26 -28t-42 -35t-58 -27t-76 -13v-95z"/>
<glyph glyph-name="sterling" horiz-adv-x="545" unicode="£" d="M180 390v150q0 78 46 126t114 49q36 -1 68 -17t48 -32l14 -16l-15 -10q-5 6 -15 15t-39 25q-30 16 -61 15q-54 0 -92 -43t-38 -112v-150h180l-5 -20h-175v-140q0 -38 -12 -74t-27 -59q-16 -23 -32 -40t-27 -25l-12 -7v-5h435l-5 -20h-510v20h30q5 2 14 7q10 5 32 23 t39 41q17 21 31 59t14 80v140h-110v20h110z"/>
<glyph glyph-name="currency" horiz-adv-x="660" unicode="¤" d="M610 500q0 -92 -60 -146t-170 -54h-200v-110h310v-20h-310v-170h-30v170h-110v20h110v110h-110v20h110v380h230q110 0 170 -54t60 -146zM580 500q0 84 -52 132t-148 48h-200v-360h200q96 0 148 48t52 132z"/>
<glyph glyph-name="yen" horiz-adv-x="630" unicode="¥" d="M95 310v20h152l-217 370h35l253 -430h4l253 430h25l-218 -370h153v-20h-164l-41 -70v-60h205v-20h-205v-160h-30v160h-205v20h205v60l-41 70h-164z"/>
<glyph glyph-name="brokenbar" horiz-adv-x="260" unicode="¦" d="M145 260v-380h-30v380h30zM115 820h30v-380h-30v380z"/>
<glyph glyph-name="section" horiz-adv-x="550" unicode="§" d="M445 210q1 28 -13 52t-44 45t-54 35t-70 35l-69 33q-10 -6 -24 -16q-13 -10 -37 -44t-24 -70q0 -28 14 -52t42 -45q30 -21 54 -35t72 -35q46 -22 68 -33q10 6 24 16t38 44t23 70zM475 210q1 -25 -9 -49q-10 -23 -23 -39t-26 -28t-23 -18l-9 -6v-5q3 -2 8 -5q5 -4 18 -14 t23 -21t18 -29t8 -36q0 -70 -52 -115t-143 -45q-49 0 -97 24t-70 48l-23 23l15 10q2 -3 8 -9t24 -20t38 -26t48 -21t57 -9q77 0 121 39t44 101q0 38 -36 69t-88 53t-102 47q-52 25 -88 63t-36 88q0 25 10 49q10 23 22 39q13 16 26 28t22 18l10 6v5q-3 2 -7 5q-3 4 -15 14 t-20 21t-16 29q-7 18 -7 36q1 68 51 114t134 46q28 0 55 -9t45 -21t32 -24t21 -22l7 -9l-15 -10q-5 9 -17 21t-50 33t-78 21q-70 0 -112 -40t-43 -100q0 -38 35 -69t85 -53t100 -47t85 -63t35 -88z"/>
<glyph glyph-name="dieresis" horiz-adv-x="330" unicode="¨" d="M290 680q0 -11 -9.5 -20.5t-20.5 -9.5t-20.5 9.5t-9.5 20.5t9.5 20.5t20.5 9.5t20.5 -9.5t9.5 -20.5zM100 680q0 -11 -9.5 -20.5t-20.5 -9.5t-20.5 9.5t-9.5 20.5t9.5 20.5t20.5 9.5t20.5 -9.5t9.5 -20.5z"/>
<glyph glyph-name="copyright" horiz-adv-x="1050" unicode="©" d="M335 265q0 93 60 154t150 61q35 0 69 -15t50 -30l16 -15l-15 -15q-6 6 -16 15q-9 8 -41 24t-63 16q-76 0 -128 -55t-52 -140t52 -140t128 -55q36 0 70 16t49 32l16 17l15 -15q-7 -8 -19 -20t-52 -30q-39 -20 -79 -20q-90 0 -150 61t-60 154zM945 270q0 186 -123 313 t-297 127t-297 -127t-123 -313t123 -313t297 -127t297 127t123 313zM975 270q0 -194 -131 -327t-319 -133t-319 133t-131 327t131 327t319 133t319 -133t131 -327z"/>
<glyph glyph-name="ordfeminine" horiz-adv-x="425" unicode="ª" d="M315 440v75q-55 35 -125 35q-50 0 -80 -26t-30 -64t30 -64t80 -26q32 0 64 18t46 34zM90 645l-10 10q6 6 16 15q10 8 42 24t62 16q73 0 109 -41t36 -129v-100q-1 -16 3 -36t8 -32l4 -12h-30l-10 55h-5q-6 -7 -16 -18t-43 -29t-66 -18q-64 0 -102 32t-38 78t38 78t102 32 q30 0 62 -8t48 -14l15 -8q-1 80 -29 115t-86 35q-26 0 -54 -11t-42 -23z"/>
<glyph glyph-name="guillemotleft" horiz-adv-x="390" unicode="«" d="M205 260l105 190h30l-105 -188v-4l105 -188h-30zM50 260l105 190h30l-105 -188v-4l105 -188h-30z"/>
<glyph glyph-name="logicalnot" horiz-adv-x="490" unicode="¬" d="M440 400v-170h-30v150h-370v20h400z"/>
<glyph glyph-name="uni00AD" horiz-adv-x="480" unicode="­" d="M440 360v-25h-400v25h400z"/>
<glyph glyph-name="registered" horiz-adv-x="1050" unicode="®" d="M945 270q0 186 -123 313t-297 127t-297 -127t-123 -313t123 -313t297 -127t297 127t123 313zM975 270q0 -194 -131 -327t-319 -133t-319 133t-131 327t131 327t319 133t319 -133t131 -327zM415 250h140q45 0 75 29t30 71t-30 71t-75 29h-140v-200zM560 230h-145v-170h-30 v410h170q59 0 97 -35t38 -85q0 -25 -10 -46q-10 -22 -24 -34t-28 -20t-23 -12l-10 -3v-5l115 -170h-35z"/>
<glyph glyph-name="macron" horiz-adv-x="370" unicode="¯" d="M40 660v25h290v-25h-290z"/>
<glyph glyph-name="degree" horiz-adv-x="420" unicode="°" d="M380 530q0 -70 -50 -120t-120 -50t-120 50t-50 120t50 120t120 50t120 -50t50 -120zM70 530q0 -62 42 -106t98 -44t98 44t42 106t-42 106t-98 44t-98 -44t-42 -106z"/>
<glyph glyph-name="plusminus" horiz-adv-x="535" unicode="±" d="M485 115v-25h-435v25h205v235h-205v25h205v210h25v-210h205v-25h-205v-235h205z"/>
<glyph glyph-name="twosuperior" horiz-adv-x="380" unicode="²" d="M305 600q1 -28 -19 -60t-48 -60q-28 -26 -56 -48t-48 -34l-19 -13v-5h200l-5 -20h-245v15q9 5 23 14t50 36t64 53t50 60t23 62q0 38 -27 64t-68 26q-27 0 -53 -11t-39 -23l-13 -11l-10 15q5 6 15 14t39 22q30 14 61 14q55 0 90 -32t35 -78z"/>
<glyph glyph-name="threesuperior" horiz-adv-x="310" unicode="³" d="M265 700v-25l-125 -115h20q52 0 86 -32t34 -73q0 -43 -37 -74t-98 -31q-31 0 -60 12t-42 26l-13 12l10 15q5 -5 14 -13q8 -8 36 -20t55 -12q47 0 76 25t29 60q0 33 -26 59t-64 26q-13 0 -27 -2t-21 -6l-7 -2l-10 15l140 130v5h-190v20h220z"/>
<glyph glyph-name="acute" horiz-adv-x="220" unicode="´" d="M40 570l105 190h35l-120 -190h-20z"/>
<glyph glyph-name="mu" d="M535 500v-380q-1 -33 3 -63t8 -43l4 -14h-30q-10 45 -10 90h-5q-3 -4 -9 -11t-26 -25t-43 -32q-22 -14 -55 -26t-67 -11q-35 0 -65 10q-30 9 -50 23q-18 14 -31 28t-19 24l-5 10h-5v-280h-30v700h30v-320q0 -75 50 -125t125 -50q53 0 103 29t74 58l23 28v380h30z" unicode="µ"/>
<glyph glyph-name="paragraph" horiz-adv-x="564" unicode="¶" d="M539 680h-104v-881h-30v881h-100v-881h-30v541q-82 0 -136 52t-54 128t54 128t136 52h269z"/>
<glyph glyph-name="periodcentered" horiz-adv-x="240" unicode="·" d="M150 345q0 -11 -10 -21t-20 -9q-10 -1 -20 9t-10 21t10 21t20 9q10 1 20 -9t10 -21z"/>
<glyph glyph-name="cedilla" horiz-adv-x="300" unicode="¸" d="M165 0l-25 -70h13q9 0 29 -6t36 -16t29 -30t13 -48q0 -44 -32 -72t-88 -28q-29 0 -54 10t-36 20l-10 10l10 15q35 -35 90 -35q40 0 65 23t25 57t-25 57t-65 23h-30l30 90h25z"/>
<glyph glyph-name="onesuperior" horiz-adv-x="225" unicode="¹" d="M20 615l120 85h20v-340h-30v305h-5l-95 -65z"/>
<glyph glyph-name="ordmasculine" horiz-adv-x="411" unicode="º" d="M50 530q0 80 45 130t110 50q66 0 111 -50t45 -130t-45 -130t-111 -50q-65 0 -110 50t-45 130zM331 530q1 72 -37 116t-89 44t-88 -44t-37 -116t37 -116t88 -44t89 44t37 116z"/>
<glyph glyph-name="guillemotright" horiz-adv-x="390" unicode="»" d="M80 450l105 -190l-105 -190h-30l105 188v4l-105 188h30zM235 450l105 -190l-105 -190h-30l105 188v4l-105 188h30z"/>
<glyph glyph-name="onequarter" horiz-adv-x="820" unicode="¼" d="M465 85v25l210 230h25v-235h70l-5 -20h-65v-85h-30v85h-205zM670 105v190h-5l-170 -185v-5h175zM140 0l460 700h25l-460 -700h-25zM40 615l120 85h20v-340h-30v305h-5l-95 -65z"/>
<glyph glyph-name="onehalf" horiz-adv-x="855" unicode="½" d="M770 240q0 -28 -20 -60t-47 -59q-28 -27 -56 -49t-47 -34l-20 -13v-5h200l-5 -20h-245v15q9 5 23 14t50 36t64 53q29 26 51 60t22 62q0 38 -27 64t-68 26q-27 0 -53 -11t-39 -23l-13 -11l-10 15q4 6 14 14t40 22t61 14q55 0 90 -32t35 -78zM140 0l460 700h25l-460 -700 h-25zM40 615l120 85h20v-340h-30v305h-5l-95 -65z"/>
<glyph glyph-name="threequarters" horiz-adv-x="870" unicode="¾" d="M515 85v25l210 230h25v-235h70l-5 -20h-65v-85h-30v85h-205zM720 105v190h-5l-170 -185v-5h175zM190 0l460 700h25l-460 -700h-25zM275 700v-25l-125 -115h20q52 0 86 -32t34 -73q0 -43 -37 -74t-98 -31q-31 0 -60 12t-42 26l-13 12l10 15q5 -5 14 -13q8 -8 36 -20 t55 -12q47 0 76 25t29 60q0 33 -26 59t-64 26q-13 0 -27 -2t-21 -6l-7 -2l-10 15l140 130v5h-190v20h220z"/>
<glyph glyph-name="questiondown" horiz-adv-x="535" unicode="¿" d="M260 480q0 10 10 20t20 10t20 -10t10 -20t-10 -20t-20 -10t-20 10t-10 20zM50 -10q0 41 12 76t33 59q20 23 44 43q23 20 47 31t44 19t32 10l13 2l10 110h10l10 -125q-9 -1 -24 -4t-54 -18t-69 -37t-54 -66t-24 -100q0 -80 58 -135t147 -55q39 0 75 12t62 29q24 17 42 33 t28 29l8 12l15 -10q-3 -5 -9 -13t-29 -30t-47 -38t-64 -30t-81 -14q-103 0 -169 61t-66 149z"/>
<glyph glyph-name="Agrave" horiz-adv-x="700" unicode="À" d="M245 970l105 -190h-20l-120 190h35zM343 650l-183 -430h370l-183 430h-4zM625 0l-85 200h-390l-85 -200h-25l300 700h20l300 -700h-35z"/>
<glyph glyph-name="Aacute" horiz-adv-x="700" unicode="Á" d="M343 650l-183 -430h370l-183 430h-4zM625 0l-85 200h-390l-85 -200h-25l300 700h20l300 -700h-35zM350 780l105 190h35l-120 -190h-20z"/>
<glyph glyph-name="Acircumflex" horiz-adv-x="700" unicode="Â" d="M488 775l-135 165h-5l-135 -165h-30l155 190h25l155 -190h-30zM343 650l-183 -430h370l-183 430h-4zM625 0l-85 200h-390l-85 -200h-25l300 700h20l300 -700h-35z"/>
<glyph glyph-name="Atilde" horiz-adv-x="700" unicode="Ã" d="M343 650l-183 -430h370l-183 430h-4zM625 0l-85 200h-390l-85 -200h-25l300 700h20l300 -700h-35zM210 800l-15 5q1 4 2 11t7.5 24t15 30t24.5 24t36 11q29 0 79 -42.5t71 -42.5q24 0 41.5 19t23.5 37l5 19l15 -5q-1 -4 -2 -11t-7.5 -24t-15 -30t-24.5 -24t-36 -11 q-29 0 -79 42.5t-71 42.5q-24 0 -41.5 -18.5t-23.5 -37.5z"/>
<glyph glyph-name="Adieresis" horiz-adv-x="700" unicode="Ä" d="M470 860q0 -10 -10 -20t-20 -10t-20 10t-10 20t10 20t20 10t20 -10t10 -20zM280 860q0 -10 -10 -20t-20 -10t-20 10t-10 20t10 20t20 10t20 -10t10 -20zM343 650l-183 -430h370l-183 430h-4zM625 0l-85 200h-390l-85 -200h-25l300 700h20l300 -700h-35z"/>
<glyph glyph-name="Aring" horiz-adv-x="700" unicode="Å" d="M343 650l-183 -430h370l-183 430h-4zM625 0l-85 200h-390l-85 -200h-25l300 700h20l300 -700h-35zM235 870q0 45 33.5 77.5t81.5 32.5t81.5 -32.5t33.5 -77.5t-33.5 -77.5t-81.5 -32.5t-81.5 32.5t-33.5 77.5zM440 870q0 38 -26.5 64t-63.5 26t-63.5 -26t-26.5 -64 t26.5 -64t63.5 -26t63.5 26t26.5 64z"/>
<glyph glyph-name="AE" horiz-adv-x="960" unicode="Æ" d="M380 680l-233 -455h353v455h-120zM30 0h-30l360 700h550l-5 -20h-375v-310h270l-5 -20h-265v-330h400v-20h-430v205h-363z"/>
<glyph glyph-name="Ccedilla" horiz-adv-x="725" unicode="Ç" d="M680 145l15 -10q-3 -7 -9 -17t-32 -37q-25 -27 -55 -47t-81 -37t-108 -17l-19 -50h13t28 -6t37 -16q16 -10 29 -30t13 -48q-1 -44 -33 -72t-87 -28q-29 0 -54 10t-35 20l-11 10l10 15q35 -35 90 -35q40 0 65 23t25 57t-25 57t-65 23h-30l24 70q-138 8 -229 110t-91 260 q1 162 99 266t246 104q52 0 99 -15t77 -36t52 -43t32 -36l10 -15l-15 -10l-9 15t-30 32q-24 23 -51 41q-27 19 -71 33t-94 14q-134 0 -224 -98t-91 -252q1 -154 91 -252t224 -98q54 0 102 15t78 36t50 43q22 22 31 36z"/>
<glyph glyph-name="Egrave" horiz-adv-x="615" unicode="È" d="M145 350v-330h440v-20h-470v700h450l-5 -20h-415v-310h310l-5 -20h-305zM255 980l105 -190h-20l-120 190h35z"/>
<glyph glyph-name="Eacute" horiz-adv-x="615" unicode="É" d="M320 790l105 190h35l-120 -190h-20zM145 350v-330h440v-20h-470v700h450l-5 -20h-415v-310h310l-5 -20h-305z"/>
<glyph glyph-name="Ecircumflex" horiz-adv-x="615" unicode="Ê" d="M145 350v-330h440v-20h-470v700h450l-5 -20h-415v-310h310l-5 -20h-305zM478 790l-135 165h-5l-135 -165h-30l155 190h25l155 -190h-30z"/>
<glyph glyph-name="Edieresis" horiz-adv-x="615" unicode="Ë" d="M475 860q1 -10 -9 -20t-21 -10t-21 10t-9 20q-1 10 9 20t21 10t21 -10t9 -20zM285 860q1 -10 -9 -20t-21 -10t-21 10t-9 20q-1 10 9 20t21 10t21 -10t9 -20zM145 350v-330h440v-20h-470v700h450l-5 -20h-415v-310h310l-5 -20h-305z"/>
<glyph glyph-name="Igrave" horiz-adv-x="260" unicode="Ì" d="M145 700v-700h-30v700h30zM35 970l105 -190h-20l-120 190h35z"/>
<glyph glyph-name="Iacute" horiz-adv-x="260" unicode="Í" d="M120 780l105 190h35l-120 -190h-20zM145 700v-700h-30v700h30z"/>
<glyph glyph-name="Icircumflex" horiz-adv-x="255" unicode="Î" d="M265 780l-135 165h-5l-135 -165h-30l155 190h25l155 -190h-30zM145 700v-700h-30v700h30z"/>
<glyph glyph-name="Idieresis" horiz-adv-x="250" unicode="Ï" d="M240 860q0 -10 -10 -20t-20 -10t-20 10t-10 20t10 20t20 10t20 -10t10 -20zM50 860q0 -10 -10 -20t-20 -10t-20 10t-10 20t10 20t20 10t20 -10t10 -20zM140 700v-700h-30v700h30z"/>
<glyph glyph-name="Eth" horiz-adv-x="745" unicode="Ð" d="M305 680h-145v-320h206v-20h-206v-320h145q153 0 249 93t96 237t-96 237t-249 93zM130 700h175q167 0 271 -99t104 -251t-104 -251t-271 -99h-175v340h-100v20h100v340z"/>
<glyph glyph-name="Ntilde" horiz-adv-x="760" unicode="Ñ" d="M135 660v-660h-20v700h30l475 -660h5v660h20v-700h-30l-475 660h-5zM240 810l-15 5q1 4 2 11t7.5 24t15 30t24.5 24t36 11q29 0 79 -42.5t71 -42.5q24 0 41.5 19t23.5 37l5 19l15 -5q-1 -4 -2 -11t-7.5 -24t-15 -30t-24.5 -24t-36 -11q-29 0 -79 42.5t-71 42.5 q-24 0 -41.5 -18.5t-23.5 -37.5z"/>
<glyph glyph-name="Ograve" horiz-adv-x="820" unicode="Ò" d="M725 350q0 155 -90.5 252.5t-224.5 97.5t-224.5 -97.5t-90.5 -252.5t90.5 -252.5t224.5 -97.5t224.5 97.5t90.5 252.5zM65 350q0 163 98.5 266.5t246.5 103.5t246.5 -103.5t98.5 -266.5t-98.5 -266.5t-246.5 -103.5t-246.5 103.5t-98.5 266.5zM315 980l105 -190h-20 l-120 190h35z"/>
<glyph glyph-name="Oacute" horiz-adv-x="820" unicode="Ó" d="M390 790l105 190h35l-120 -190h-20zM725 350q-1 154 -91 252t-224 98t-224 -98t-91 -252q1 -154 91 -252t224 -98t224 98t91 252zM65 350q1 162 99 266t246 104t246 -104t99 -266q-1 -162 -99 -266t-246 -104t-246 104t-99 266z"/>
<glyph glyph-name="Ocircumflex" horiz-adv-x="820" unicode="Ô" d="M725 350q0 155 -90.5 252.5t-224.5 97.5t-224.5 -97.5t-90.5 -252.5t90.5 -252.5t224.5 -97.5t224.5 97.5t90.5 252.5zM65 350q0 163 98.5 266.5t246.5 103.5t246.5 -103.5t98.5 -266.5t-98.5 -266.5t-246.5 -103.5t-246.5 103.5t-98.5 266.5zM558 790l-135 165h-5 l-135 -165h-30l155 190h25l155 -190h-30z"/>
<glyph glyph-name="Otilde" horiz-adv-x="820" unicode="Õ" d="M270 820l-15 5q1 4 2 11t7 24t16 30q8 13 24 24t36 11q29 -1 79 -43t71 -42q24 0 42 19t22 37l6 19l15 -5q-1 -4 -2 -11t-7 -24t-16 -30q-8 -13 -24 -24t-36 -11q-29 0 -79 42t-71 43q-24 -1 -42 -19t-22 -37zM725 350q-1 154 -91 252t-224 98t-224 -98t-91 -252 q1 -154 91 -252t224 -98t224 98t91 252zM65 350q1 162 99 266t246 104t246 -104t99 -266q-1 -162 -99 -266t-246 -104t-246 104t-99 266z"/>
<glyph glyph-name="Odieresis" horiz-adv-x="820" unicode="Ö" d="M725 350q0 155 -90.5 252.5t-224.5 97.5t-224.5 -97.5t-90.5 -252.5t90.5 -252.5t224.5 -97.5t224.5 97.5t90.5 252.5zM65 350q0 163 98.5 266.5t246.5 103.5t246.5 -103.5t98.5 -266.5t-98.5 -266.5t-246.5 -103.5t-246.5 103.5t-98.5 266.5zM525 860q0 -11 -9.5 -20.5 t-20.5 -9.5t-20.5 9.5t-9.5 20.5t9.5 20.5t20.5 9.5t20.5 -9.5t9.5 -20.5zM335 860q0 -11 -9.5 -20.5t-20.5 -9.5t-20.5 9.5t-9.5 20.5t9.5 20.5t20.5 9.5t20.5 -9.5t9.5 -20.5z"/>
<glyph glyph-name="multiply" horiz-adv-x="460" unicode="×" d="M230 375l145 145l20 -15l-150 -150l150 -150l-20 -15l-145 145l-145 -145l-20 15l150 150l-150 150l20 15z"/>
<glyph glyph-name="Oslash" horiz-adv-x="820" unicode="Ø" d="M725 350q0 140 -70 230l-475 -475q92 -105 230 -105q134 0 224 98t91 252zM95 350q0 -137 70 -230l475 475q-94 105 -230 105q-134 0 -224 -98t-91 -252zM65 350q1 162 99 266t246 104q146 0 245 -105l85 85h30l-100 -100q85 -101 85 -250q-1 -162 -99 -266t-246 -104 q-146 0 -245 105l-85 -85h-30l100 100q-85 103 -85 250z"/>
<glyph glyph-name="Ugrave" horiz-adv-x="760" unicode="Ù" d="M380 0q110 0 177.5 70.5t67.5 189.5v440h20v-440q0 -126 -74 -203t-191 -77t-191 77t-74 203v440h30v-440q0 -118 66 -189t169 -71zM315 970l105 -190h-20l-120 190h35z"/>
<glyph glyph-name="Uacute" horiz-adv-x="760" unicode="Ú" d="M360 780l105 190h35l-120 -190h-20zM380 0q110 0 178 70t67 190v440h20v-440q0 -126 -74 -203t-191 -77t-191 77t-74 203v440h30v-440q0 -118 66 -189t169 -71z"/>
<glyph glyph-name="Ucircumflex" horiz-adv-x="760" unicode="Û" d="M380 0q110 0 177.5 70.5t67.5 189.5v440h20v-440q0 -126 -74 -203t-191 -77t-191 77t-74 203v440h30v-440q0 -118 66 -189t169 -71zM518 780l-135 165h-5l-135 -165h-30l155 190h25l155 -190h-30z"/>
<glyph glyph-name="Udieresis" horiz-adv-x="760" unicode="Ü" d="M505 860q1 -10 -9 -20t-21 -10t-21 10t-9 20q-1 10 9 20t21 10t21 -10t9 -20zM315 860q1 -10 -9 -20t-21 -10t-21 10t-9 20q-1 10 9 20t21 10t21 -10t9 -20zM380 0q110 0 178 70t67 190v440h20v-440q0 -126 -74 -203t-191 -77t-191 77t-74 203v440h30v-440 q0 -118 66 -189t169 -71z"/>
<glyph glyph-name="Yacute" horiz-adv-x="610" unicode="Ý" d="M320 240v-240h-30v240l-270 460h35l253 -430h4l253 430h25zM295 780l105 190h35l-120 -190h-20z"/>
<glyph glyph-name="Thorn" horiz-adv-x="705" unicode="Þ" d="M115 -40v790h30v-100h120q179 0 277 -84t98 -216t-98 -216t-277 -84h-120v-90h-30zM145 630v-560h120q169 0 257 76t88 204t-88 204t-257 76h-120z"/>
<glyph glyph-name="Germandbls" horiz-adv-x="685" unicode="ß" d="M420 -20q-29 0 -59 8t-45 18l-16 9l5 20q50 -35 115 -35q86 0 136 48t49 131q1 59 -27 103t-67 63q-39 20 -77 31t-66 12l-28 2v20l195 265v5h-160q-112 0 -176 -62t-64 -168v-450h-30v450q0 114 72 182t198 68h190v-20l-195 -265v-5q11 0 29 -2q17 -2 63 -16t81 -36 t63 -68t29 -108q1 -92 -57 -146t-158 -54z"/>
<glyph glyph-name="agrave" horiz-adv-x="565" unicode="à" d="M245 5q53 0 103 29t74 58l23 28v120q-11 6 -30.5 15t-72.5 24.5t-97 15.5q-81 0 -125.5 -40t-44.5 -105t44.5 -105t125.5 -40zM475 305v-185q0 -33 3.5 -63t7.5 -43l4 -14h-30q-10 45 -10 90h-5q-3 -4 -9 -11t-26.5 -25.5t-42.5 -32t-55 -25t-67 -11.5q-95 0 -147.5 45.5 t-52.5 119.5t52.5 119.5t147.5 45.5q44 0 94 -12.5t78 -24.5l28 -13v40q0 89 -48.5 139.5t-131.5 50.5q-44 0 -84 -18.5t-58 -37.5l-18 -19l-15 10q3 3 8 9t22 20.5t36 26t48.5 20.5t60.5 9q97 0 153.5 -56.5t56.5 -153.5zM195 780l105 -190h-20l-120 190h35z"/>
<glyph glyph-name="aacute" horiz-adv-x="565" unicode="á" d="M270 590l105 190h35l-120 -190h-20zM245 5q53 0 103 29t74 58l23 28v120q-11 6 -31 15t-72 25q-53 16 -97 15q-81 0 -125 -40t-45 -105q1 -65 45 -105t125 -40zM475 305v-185q-1 -33 3 -63t8 -43l4 -14h-30q-10 45 -10 90h-5q-3 -4 -9 -11t-26 -25t-43 -32 q-22 -14 -55 -26t-67 -11q-95 -1 -147 45t-53 120q1 74 53 120t147 45q44 -1 94 -13t78 -24l28 -13v40q-1 89 -49 139t-131 51q-44 -1 -84 -19t-58 -37l-18 -19l-15 10q3 3 8 9q5 7 22 21t36 26q18 12 48 20q30 9 61 9q97 -1 153 -57t57 -153z"/>
<glyph glyph-name="acircumflex" horiz-adv-x="565" unicode="â" d="M245 5q53 0 103 29t74 58l23 28v120q-11 6 -30.5 15t-72.5 24.5t-97 15.5q-81 0 -125.5 -40t-44.5 -105t44.5 -105t125.5 -40zM475 305v-185q0 -33 3.5 -63t7.5 -43l4 -14h-30q-10 45 -10 90h-5q-3 -4 -9 -11t-26.5 -25.5t-42.5 -32t-55 -25t-67 -11.5q-95 0 -147.5 45.5 t-52.5 119.5t52.5 119.5t147.5 45.5q44 0 94 -12.5t78 -24.5l28 -13v40q0 89 -48.5 139.5t-131.5 50.5q-44 0 -84 -18.5t-58 -37.5l-18 -19l-15 10q3 3 8 9t22 20.5t36 26t48.5 20.5t60.5 9q97 0 153.5 -56.5t56.5 -153.5zM418 590l-135 165h-5l-135 -165h-30l155 190h25 l155 -190h-30z"/>
<glyph glyph-name="atilde" horiz-adv-x="560" unicode="ã" d="M130 620l-15 5q1 4 2 11t7 24t16 30q8 13 24 24t36 11q29 -1 79 -43t71 -42q24 0 42 19t22 37l6 19l15 -5q-1 -4 -2 -11t-7 -24t-16 -30q-8 -13 -24 -24t-36 -11q-29 0 -79 42t-71 43q-24 -1 -42 -19t-22 -37zM245 5q53 0 103 29t74 58l23 28v120q-11 6 -31 15t-72 25 q-53 16 -97 15q-81 0 -125 -40t-45 -105q1 -65 45 -105t125 -40zM475 305v-185q-1 -33 3 -63t8 -43l4 -14h-30q-10 45 -10 90h-5q-3 -4 -9 -11t-26 -25t-43 -32q-22 -14 -55 -26t-67 -11q-95 -1 -147 45t-53 120q1 74 53 120t147 45q44 -1 94 -13t78 -24l28 -13v40 q-1 89 -49 139t-131 51q-44 -1 -84 -19t-58 -37l-18 -19l-15 10q3 3 8 9q5 7 22 21t36 26q18 12 48 20q30 9 61 9q97 -1 153 -57t57 -153z"/>
<glyph glyph-name="adieresis" horiz-adv-x="565" unicode="ä" d="M245 5q53 0 103 29t74 58l23 28v120q-11 6 -30.5 15t-72.5 24.5t-97 15.5q-81 0 -125.5 -40t-44.5 -105t44.5 -105t125.5 -40zM475 305v-185q0 -33 3.5 -63t7.5 -43l4 -14h-30q-10 45 -10 90h-5q-3 -4 -9 -11t-26.5 -25.5t-42.5 -32t-55 -25t-67 -11.5q-95 0 -147.5 45.5 t-52.5 119.5t52.5 119.5t147.5 45.5q44 0 94 -12.5t78 -24.5l28 -13v40q0 89 -48.5 139.5t-131.5 50.5q-44 0 -84 -18.5t-58 -37.5l-18 -19l-15 10q3 3 8 9t22 20.5t36 26t48.5 20.5t60.5 9q97 0 153.5 -56.5t56.5 -153.5zM395 660q0 -11 -9.5 -20.5t-20.5 -9.5t-20.5 9.5 t-9.5 20.5t9.5 20.5t20.5 9.5t20.5 -9.5t9.5 -20.5zM205 660q0 -11 -9.5 -20.5t-20.5 -9.5t-20.5 9.5t-9.5 20.5t9.5 20.5t20.5 9.5t20.5 -9.5t9.5 -20.5z"/>
<glyph glyph-name="aring" horiz-adv-x="565" unicode="å" d="M170 700q0 46 34 78t81 32t81 -32t34 -78t-34 -78t-81 -32t-81 32t-34 78zM375 700q-1 38 -27 64t-63 26t-63 -26t-27 -64q1 -38 27 -64t63 -26t63 26t27 64zM245 5q53 0 103 29t74 58l23 28v120q-11 6 -31 15t-72 25q-53 16 -97 15q-81 0 -125 -40t-45 -105 q1 -65 45 -105t125 -40zM475 305v-185q-1 -33 3 -63t8 -43l4 -14h-30q-10 45 -10 90h-5q-3 -4 -9 -11t-26 -25t-43 -32q-22 -14 -55 -26t-67 -11q-95 -1 -147 45t-53 120q1 74 53 120t147 45q44 -1 94 -13t78 -24l28 -13v40q-1 89 -49 139t-131 51q-44 -1 -84 -19t-58 -37 l-18 -19l-15 10q3 3 8 9q5 7 22 21t36 26q18 12 48 20q30 9 61 9q97 -1 153 -57t57 -153z"/>
<glyph glyph-name="ae" horiz-adv-x="930" unicode="æ" d="M665 495q-78 0 -134 -65t-56 -170h380q0 105 -56 170t-134 65zM245 5q36 -1 70 15q35 16 57 38t40 44t25 38l8 15v85q-11 6 -31 15t-72 25q-53 16 -97 15q-81 0 -125 -40t-45 -105q-1 -67 45 -106t125 -39zM460 360h5q25 71 75 113t125 42q92 -1 156 -71t64 -184l-5 -20 h-405q-1 -110 55 -172t145 -63q34 0 64 11q29 11 49 26q20 14 34 30t22 27l6 11l15 -10q-2 -4 -7 -12q-4 -8 -22 -28t-38 -35t-54 -27t-69 -13q-158 0 -210 155h-5l-8 -16q-4 -10 -24 -38q-20 -27 -42 -47t-61 -37q-38 -17 -80 -17q-95 -1 -147 45t-53 120q1 74 53 120 t147 45q44 -1 94 -13t78 -24l28 -13v40q-1 89 -49 139t-131 51q-44 -1 -84 -19t-58 -37l-18 -19l-15 10q3 3 8 9q5 7 22 21t36 26q18 12 48 20q30 9 61 9q50 0 89 -16q39 -17 58 -39t31 -45t15 -39z"/>
<glyph glyph-name="ccedilla" horiz-adv-x="530" unicode="ç" d="M490 420l-15 -10q-3 3 -8 9q-5 7 -22 21t-36 26t-49 20q-30 9 -60 9q-92 0 -156 -69t-64 -176t64 -176t156 -69q36 0 70 11t55 26q23 14 39 30t24 27l7 11l15 -10q-3 -4 -8 -12q-6 -8 -24 -26q-18 -20 -40 -35t-56 -28t-72 -14l-20 -55h13q9 0 29 -6t36 -16t29 -30 t13 -48q0 -44 -32 -72t-88 -28q-29 0 -54 10t-36 20l-10 10l10 15q35 -35 90 -35q40 0 65 23t25 57t-25 57t-65 23h-30l25 75q-99 4 -167 79t-68 186q0 115 72 190t178 75q34 0 66 -10q32 -9 53 -23q23 -14 39 -28t24 -24z"/>
<glyph glyph-name="egrave" horiz-adv-x="575" unicode="è" d="M80 260h420q0 99 -63 167t-147 68t-147 -68t-63 -167zM525 240h-445q0 -100 64.5 -167.5t155.5 -67.5q36 0 69.5 11t55.5 26t38.5 30.5t24.5 26.5l7 11l15 -10q-3 -5 -8.5 -12.5t-25 -27.5t-42 -35t-59 -27.5t-75.5 -12.5q-106 0 -178 75t-72 190q0 114 70.5 189.5 t169.5 75.5t169.5 -73.5t70.5 -181.5zM195 780l105 -190h-20l-120 190h35z"/>
<glyph glyph-name="eacute" horiz-adv-x="575" unicode="é" d="M290 590l105 190h35l-120 -190h-20zM80 260h420q0 99 -63 167t-147 68t-147 -68t-63 -167zM525 240h-445q0 -100 64 -168t156 -67q36 0 70 11t55 26q23 14 39 30t24 27l7 11l15 -10q-2 -4 -8 -12t-26 -28t-42 -35t-58 -27t-76 -13q-106 0 -178 75t-72 190q0 114 70 190 t170 75q100 1 170 -73t70 -182z"/>
<glyph glyph-name="ecircumflex" horiz-adv-x="575" unicode="ê" d="M80 260h420q0 99 -63 167t-147 68t-147 -68t-63 -167zM525 240h-445q0 -100 64.5 -167.5t155.5 -67.5q36 0 69.5 11t55.5 26t38.5 30.5t24.5 26.5l7 11l15 -10q-3 -5 -8.5 -12.5t-25 -27.5t-42 -35t-59 -27.5t-75.5 -12.5q-106 0 -178 75t-72 190q0 114 70.5 189.5 t169.5 75.5t169.5 -73.5t70.5 -181.5zM433 590l-135 165h-5l-135 -165h-30l155 190h25l155 -190h-30z"/>
<glyph glyph-name="edieresis" horiz-adv-x="575" unicode="ë" d="M415 670q1 -10 -9 -20t-21 -10t-21 10t-9 20q-1 10 9 20t21 10t21 -10t9 -20zM225 670q1 -10 -9 -20t-21 -10t-21 10t-9 20q-1 10 9 20t21 10t21 -10t9 -20zM80 260h420q0 99 -63 167t-147 68t-147 -68t-63 -167zM525 240h-445q0 -100 64 -168t156 -67q36 0 70 11t55 26 q23 14 39 30t24 27l7 11l15 -10q-2 -4 -8 -12t-26 -28t-42 -35t-58 -27t-76 -13q-106 0 -178 75t-72 190q0 114 70 190t170 75q100 1 170 -73t70 -182z"/>
<glyph glyph-name="igrave" horiz-adv-x="225" unicode="ì" d="M15 780l105 -190h-20l-120 190h35zM125 500v-500h-30v500h30z"/>
<glyph glyph-name="iacute" horiz-adv-x="225" unicode="í" d="M105 590l105 190h35l-120 -190h-20zM130 500v-500h-30v500h30z"/>
<glyph glyph-name="icircumflex" horiz-adv-x="255" unicode="î" d="M265 590l-135 165h-5l-135 -165h-30l155 190h25l155 -190h-30zM142 500v-500h-30v500h30z"/>
<glyph glyph-name="idieresis" horiz-adv-x="230" unicode="ï" d="M230 670q0 -10 -10 -20t-20 -10t-20 10t-10 20t10 20t20 10t20 -10t10 -20zM40 670q0 -10 -10 -20t-20 -10t-20 10t-10 20t10 20t20 10t20 -10t10 -20zM130 500v-500h-30v500h30z"/>
<glyph glyph-name="eth" horiz-adv-x="595" unicode="ð" d="M70 230q0 -97 62 -161t153 -64t153 64t62 161t-62 161t-153 64t-153 -64t-62 -161zM490 370h5q-13 56 -37 107t-52 84q-26 33 -50 57t-40 36l-16 11l-60 -85l-20 15l60 85l-95 75l15 20l95 -75l60 80l21 -15l-61 -80q9 -7 23 -17t52 -49t66 -84t51 -119t23 -156 q0 -125 -69 -200t-176 -75q-105 0 -175 70t-70 175t70 175t175 70q39 0 75 -11t58 -26q23 -14 40 -30t24 -27z"/>
<glyph glyph-name="ntilde" horiz-adv-x="625" unicode="ñ" d="M100 0v380q0 33 -4 63t-8 43l-3 14h30q10 -45 10 -90h5q3 4 9 11t26.5 25.5t42.5 32t55 25t67 11.5q93 0 149 -54t56 -141v-320h-30v320q0 75 -50 125t-125 50q-53 0 -103 -29t-73 -58l-24 -28v-380h-30zM175 630l-15 5q1 4 2 11t7.5 24t15 30t24.5 24t36 11 q29 0 79 -42.5t71 -42.5q24 0 41.5 19t23.5 37l5 19l15 -5q-1 -4 -2 -11t-7.5 -24t-15 -30t-24.5 -24t-36 -11q-29 0 -79 42.5t-71 42.5q-24 0 -41.5 -18.5t-23.5 -37.5z"/>
<glyph glyph-name="ograve" horiz-adv-x="600" unicode="ò" d="M50 250q0 115 72 190t178 75t178 -75t72 -190t-72 -190t-178 -75t-178 75t-72 190zM520 250q0 107 -64 176t-156 69t-156 -69t-64 -176t64 -176t156 -69t156 69t64 176zM205 790l105 -190h-20l-120 190h35z"/>
<glyph glyph-name="oacute" horiz-adv-x="600" unicode="ó" d="M270 600l105 190h35l-120 -190h-20zM50 250q0 115 72 190t178 75t178 -75t72 -190t-72 -190t-178 -75t-178 75t-72 190zM520 250q0 107 -64 176t-156 69t-156 -69t-64 -176t64 -176t156 -69t156 69t64 176z"/>
<glyph glyph-name="ocircumflex" horiz-adv-x="600" unicode="ô" d="M50 250q0 115 72 190t178 75t178 -75t72 -190t-72 -190t-178 -75t-178 75t-72 190zM520 250q0 107 -64 176t-156 69t-156 -69t-64 -176t64 -176t156 -69t156 69t64 176zM438 600l-135 165h-5l-135 -165h-30l155 190h25l155 -190h-30z"/>
<glyph glyph-name="otilde" horiz-adv-x="600" unicode="õ" d="M160 630l-15 5q1 4 2 11t7 24t16 30q8 13 24 24t36 11q29 -1 79 -43t71 -42q24 0 42 19t22 37l6 19l15 -5q-1 -4 -2 -11t-7 -24t-16 -30q-8 -13 -24 -24t-36 -11q-29 0 -79 42t-71 43q-24 -1 -42 -19t-22 -37zM50 250q0 115 72 190t178 75t178 -75t72 -190t-72 -190 t-178 -75t-178 75t-72 190zM520 250q0 107 -64 176t-156 69t-156 -69t-64 -176t64 -176t156 -69t156 69t64 176z"/>
<glyph glyph-name="odieresis" horiz-adv-x="600" unicode="ö" d="M50 250q0 115 72 190t178 75t178 -75t72 -190t-72 -190t-178 -75t-178 75t-72 190zM520 250q0 107 -64 176t-156 69t-156 -69t-64 -176t64 -176t156 -69t156 69t64 176zM415 670q0 -11 -9.5 -20.5t-20.5 -9.5t-20.5 9.5t-9.5 20.5t9.5 20.5t20.5 9.5t20.5 -9.5t9.5 -20.5 zM225 670q0 -11 -9.5 -20.5t-20.5 -9.5t-20.5 9.5t-9.5 20.5t9.5 20.5t20.5 9.5t20.5 -9.5t9.5 -20.5z"/>
<glyph glyph-name="divide" horiz-adv-x="480" unicode="÷" d="M270 555q0 -11 -10 -21t-20 -9q-10 -1 -20 9t-10 21t10 21t20 9q10 1 20 -9t10 -21zM270 150q0 -10 -10 -20t-20 -10t-20 10t-10 20t10 20t20 10t20 -10t10 -20zM440 365v-25h-400v25h400z"/>
<glyph glyph-name="oslash" horiz-adv-x="610" unicode="ø" d="M85 250q0 -90 47 -156l327 333q-63 68 -154 68q-92 0 -156 -69t-64 -176zM525 250q0 93 -52 161l-328 -333q65 -73 160 -73q92 0 156 69t64 176zM55 250q0 115 72 190t178 75q102 0 172 -70l63 65h30l-79 -80q64 -74 64 -180q0 -115 -72 -190t-178 -75q-107 0 -178 74 l-58 -59h-29l73 75q-58 73 -58 175z"/>
<glyph glyph-name="ugrave" d="M535 500v-380q0 -33 3.5 -63t7.5 -43l4 -14h-30q-10 45 -10 90h-5q-3 -4 -9 -11t-26.5 -25.5t-42.5 -32t-55 -25t-67 -11.5q-93 0 -149 54t-56 141v320h30v-320q0 -75 50 -125t125 -50q53 0 103 29t74 58l23 28v380h30zM240 790l105 -190h-20l-120 190h35z" unicode="ù"/>
<glyph glyph-name="uacute" d="M295 600l105 190h35l-120 -190h-20zM535 500v-380q-1 -33 3 -63t8 -43l4 -14h-30q-10 45 -10 90h-5q-3 -4 -9 -11t-26 -25t-43 -32q-22 -14 -55 -26t-67 -11q-93 0 -149 54t-56 141v320h30v-320q0 -75 50 -125t125 -50q53 0 103 29t74 58l23 28v380h30z" unicode="ú"/>
<glyph glyph-name="ucircumflex" d="M535 500v-380q0 -33 3.5 -63t7.5 -43l4 -14h-30q-10 45 -10 90h-5q-3 -4 -9 -11t-26.5 -25.5t-42.5 -32t-55 -25t-67 -11.5q-93 0 -149 54t-56 141v320h30v-320q0 -75 50 -125t125 -50q53 0 103 29t74 58l23 28v380h30zM463 600l-135 165h-5l-135 -165h-30l155 190h25 l155 -190h-30z" unicode="û"/>
<glyph glyph-name="udieresis" d="M440 670q0 -10 -10 -20t-20 -10t-20 10t-10 20t10 20t20 10t20 -10t10 -20zM250 670q0 -10 -10 -20t-20 -10t-20 10t-10 20t10 20t20 10t20 -10t10 -20zM535 500v-380q-1 -33 3 -63t8 -43l4 -14h-30q-10 45 -10 90h-5q-3 -4 -9 -11t-26 -25t-43 -32q-22 -14 -55 -26 t-67 -11q-93 0 -149 54t-56 141v320h30v-320q0 -75 50 -125t125 -50q53 0 103 29t74 58l23 28v380h30z" unicode="ü"/>
<glyph glyph-name="yacute" d="M505 10v85h-5q-3 -4 -9 -11t-25 -24t-40.5 -30t-54 -24t-66.5 -11q-93 0 -149 54t-56 141v310h30v-310q0 -75 50 -125t125 -50q34 0 67 12t56 28.5t41 33.5t27 29l9 12v370h30v-490q0 -102 -66 -166t-174 -64q-36 0 -69 10t-54 24t-37 27.5t-23 23.5l-7 10l15 10 q2 -3 6.5 -9t20.5 -20.5t34.5 -26t49 -20.5t64.5 -9q94 0 152 58t58 152zM295 600l105 190h35l-120 -190h-20z" unicode="ý"/>
<glyph glyph-name="thorn" d="M330 5q95 0 160 69t65 176t-65 176t-160 69q-53 0 -103 -29t-73 -58l-24 -28v-260l9 -12q7 -8 27 -28t42 -35t55 -27t67 -13zM135 85h-5v-285h-30v900h30v-285h5q3 4 9 11t25 24t41 30t54 24t66 11q109 0 182 -75t73 -190t-73 -190t-182 -75q-34 1 -66 11t-54 24t-40 30 q-18 14 -26 24z" unicode="þ"/>
<glyph glyph-name="circumflex" horiz-adv-x="415" unicode="ˆ" d="M345 570l-135 165h-5l-135 -165h-30l155 190h25l155 -190h-30z"/>
<glyph glyph-name="ring" horiz-adv-x="310" unicode="˚" d="M40 690q0 45 33.5 77.5t81.5 32.5t81.5 -32.5t33.5 -77.5t-33.5 -77.5t-81.5 -32.5t-81.5 32.5t-33.5 77.5zM245 690q0 38 -26.5 64t-63.5 26t-63.5 -26t-26.5 -64t26.5 -64t63.5 -26t63.5 26t26.5 64z"/>
<glyph glyph-name="tilde" horiz-adv-x="400" unicode="˜" d="M55 620l-15 5q1 4 2 11t7.5 24t15 30t24.5 24t36 11q29 0 79 -42.5t71 -42.5q24 0 41.5 19t23.5 37l5 19l15 -5q-1 -4 -2 -11t-7.5 -24t-15 -30t-24.5 -24t-36 -11q-29 0 -79 42.5t-71 42.5q-24 0 -41.5 -18.5t-23.5 -37.5z"/>
<glyph glyph-name="afii10023" horiz-adv-x="615" unicode="Ё" d="M465 860q1 -10 -9 -20t-21 -10t-21 10t-9 20q-1 10 9 20t21 10t21 -10t9 -20zM275 860q1 -10 -9 -20t-21 -10t-21 10t-9 20q-1 10 9 20t21 10t21 -10t9 -20zM145 350v-330h440v-20h-470v700h450l-5 -20h-415v-310h310l-5 -20h-305z"/>
<glyph glyph-name="afii10051" horiz-adv-x="730" unicode="Ђ" d="M680 220q0 -128 -64 -194t-186 -66v20q106 0 163 60t57 180q0 92 -58 146t-157 54q-47 0 -103 -15t-89 -30l-33 -15v-360h-30v680h-180v20h450l-5 -20h-235v-300q13 7 36 17q22 11 82 27t107 16q113 0 179 -60t66 -160z"/>
<glyph glyph-name="afii10052" horiz-adv-x="535" unicode="Ѓ" d="M300 780l105 190h35l-120 -190h-20zM115 0v700h410l-5 -20h-375v-680h-30z"/>
<glyph glyph-name="afii10053" horiz-adv-x="725" unicode="Є" d="M680 145l15 -10q-3 -7 -9 -17t-32 -37q-25 -27 -55 -47t-81 -37t-108 -17q-148 0 -246 104t-99 266q1 162 99 266t246 104q52 0 99 -15t77 -36t52 -43t32 -36l10 -15l-15 -10l-9 15t-30 32q-24 23 -51 41q-27 19 -71 33t-94 14q-133 0 -224 -96t-91 -244h365l-5 -20h-360 q0 -148 91 -244t224 -96q54 0 102 15t78 36t50 43q22 22 31 36z"/>
<glyph glyph-name="afii10054" horiz-adv-x="615" unicode="Ѕ" d="M85 540q-1 72 65 126t170 54q42 0 81 -13t65 -31t46 -36t29 -32l9 -13l-15 -10q-3 5 -9 13t-26 27q-20 20 -44 35q-23 16 -60 28t-76 12q-90 0 -148 -48t-57 -112q1 -52 47 -88t112 -58t132 -46q66 -23 112 -65t47 -103q0 -82 -69 -141t-181 -59q-55 0 -103 16t-78 38 t-53 46q-22 23 -31 39l-10 16l15 10l9 -15t29 -35t51 -45t73 -34q46 -16 98 -16q98 0 159 53t61 127q-1 52 -47 88t-112 58t-132 46q-66 23 -112 65t-47 103z"/>
<glyph glyph-name="afii10055" horiz-adv-x="260" unicode="І" d="M145 700v-700h-30v700h30z"/>
<glyph glyph-name="afii10056" horiz-adv-x="250" unicode="Ї" d="M240 860q0 -10 -10 -20t-20 -10t-20 10t-10 20t10 20t20 10t20 -10t10 -20zM50 860q0 -10 -10 -20t-20 -10t-20 10t-10 20t10 20t20 10t20 -10t10 -20zM140 700v-700h-30v700h30z"/>
<glyph glyph-name="afii10057" horiz-adv-x="275" unicode="Ј" d="M-50 -210v20q80 0 130 66t50 195v629h30v-629q0 -137 -58 -209t-152 -72z"/>
<glyph glyph-name="afii10058" horiz-adv-x="1065" unicode="Љ" d="M750 420h-160v-400h160q96 0 158 58t62 142t-62 142t-158 58zM590 440h160q110 0 180 -64t70 -156t-70 -156t-180 -64h-190v680h-290l-50 -450q-14 -126 -64 -188t-121 -62l-35 5v20h35q56 -1 100 57t55 168l50 470h350v-260z"/>
<glyph glyph-name="afii10059" horiz-adv-x="1045" unicode="Њ" d="M750 380h-195v-360h195q88 0 144 52t56 128t-56 128t-144 52zM555 400h195q102 0 166 -58t64 -142t-64 -142t-166 -58h-225v380h-380v-380h-30v700h30v-300h380v300h30v-300z"/>
<glyph glyph-name="afii10060" horiz-adv-x="775" unicode="Ћ" d="M180 0v680h-180v20h450l-5 -20h-235v-300q13 7 36 17q22 11 82 27t107 16q113 0 179 -60t66 -160v-220h-30v220q0 92 -58 146t-157 54q-47 0 -103 -15t-89 -30l-33 -15v-360h-30z"/>
<glyph glyph-name="afii10061" horiz-adv-x="655" unicode="Ќ" d="M330 780l105 190h35l-120 -190h-20zM370 370l265 -370h-35l-260 360h-195v-360h-30v700h30v-320h205l230 320h25z"/>
<glyph glyph-name="afii10062" horiz-adv-x="650" unicode="Ў" d="M340 830q30 0 56 11t42 26t29 31q12 16 17 26l6 11l15 -5q-1 -5 -5 -14q-4 -10 -18 -32t-30 -39q-17 -17 -47 -31t-65 -14t-65 14q-29 14 -47 32q-18 19 -30 38t-18 32l-5 14l15 5q2 -4 6 -11q4 -8 16 -26q14 -18 30 -32t42 -24q26 -12 56 -12zM325 110l-295 590h35 l275 -550h5l260 550h25l-280 -590q-34 -70 -69 -102t-86 -33q-11 1 -23 3t-20 4l-7 3v15q25 -5 50 -5q76 0 130 115z"/>
<glyph glyph-name="afii10145" horiz-adv-x="760" unicode="Џ" d="M365 0h-250v700h30v-680h470v680h30v-700h-250l-5 -180h-20z"/>
<glyph glyph-name="afii10017" horiz-adv-x="700" unicode="А" d="M343 650l-183 -430h370l-183 430h-4zM625 0l-85 200h-390l-85 -200h-25l300 700h20l300 -700h-35z"/>
<glyph glyph-name="afii10018" horiz-adv-x="665" unicode="Б" d="M365 390h-220v-370h220q96 0 153 52t57 133t-57 133t-153 52zM115 0v700h430l-5 -20h-395v-270h220q110 0 175 -58t65 -147t-65 -147t-175 -58h-250z"/>
<glyph glyph-name="afii10019" horiz-adv-x="675" unicode="В" d="M365 680h-220v-290h220q77 0 123 42t47 103q-1 61 -47 103t-123 42zM395 370h-250v-350h250q88 0 144 51t56 124t-56 124t-144 51zM115 0v700h250q91 0 145 -48t55 -117q-1 -32 -13 -59t-30 -42q-18 -16 -34 -26q-18 -10 -30 -14l-13 -4v-5q7 -1 19 -3t44 -16 q30 -14 54 -32t44 -56q20 -37 19 -83q0 -81 -64 -138t-166 -57h-280z"/>
<glyph glyph-name="afii10020" horiz-adv-x="535" unicode="Г" d="M115 0v700h410l-5 -20h-375v-680h-30z"/>
<glyph glyph-name="afii10021" horiz-adv-x="735" unicode="Д" d="M180 230q-6 -42 -18 -78t-28 -59q-14 -23 -28 -39t-22 -22l-9 -7v-5h490v660h-335zM665 0h-635l-10 -180h-20v200h40q4 2 11 7t25 23t32 41q15 21 29 59t18 80l50 470h390v-680h100v-200h-20z"/>
<glyph glyph-name="afii10022" horiz-adv-x="615" unicode="Е" d="M145 350v-330h440v-20h-470v700h450l-5 -20h-415v-310h310l-5 -20h-305z"/>
<glyph glyph-name="afii10024" horiz-adv-x="1010" unicode="Ж" d="M20 0l265 370l-235 330h25l230 -320h185v320h30v-320h185l230 320h25l-235 -330l265 -370h-35l-260 360h-175v-360h-30v360h-175l-260 -360h-35z"/>
<glyph glyph-name="afii10025" horiz-adv-x="620" unicode="З" d="M525 540q1 -35 -15 -65q-16 -29 -38 -47t-44 -30t-38 -18l-15 -5v-5q7 -1 19 -4t44 -17q30 -14 54 -33t44 -55t19 -81q0 -82 -69 -141t-181 -59q-55 0 -103 16t-78 38t-53 46q-22 23 -31 39l-10 16l15 10l9 -15t29 -35t51 -45t73 -34q46 -16 98 -16q98 0 159 53t61 127 q-1 76 -61 128t-164 52h-80v20h70q90 0 148 48t57 112q1 64 -57 112t-148 48q-40 0 -76 -12t-60 -29t-44 -33q-18 -16 -26 -29l-9 -12l-15 10q4 5 10 13t28 30t46 38t64 30t82 14q104 0 170 -54t65 -126z"/>
<glyph glyph-name="afii10026" horiz-adv-x="760" unicode="И" d="M145 700v-655h5l465 655h30v-700h-30v655h-5l-465 -655h-30v700h30z"/>
<glyph glyph-name="afii10027" horiz-adv-x="760" unicode="Й" d="M380 830q30 0 56 11t42 26t29 31q12 16 17 26l6 11l15 -5q-1 -5 -5 -14q-4 -10 -18 -32t-30 -39q-17 -17 -47 -31t-65 -14t-65 14q-29 14 -47 32q-18 19 -30 38t-18 32l-5 14l15 5q2 -4 6 -11q4 -8 16 -26q14 -18 30 -32t42 -24q26 -12 56 -12zM145 700v-655h5l465 655 h30v-700h-30v655h-5l-465 -655h-30v700h30z"/>
<glyph glyph-name="afii10028" horiz-adv-x="655" unicode="К" d="M370 370l265 -370h-35l-260 360h-195v-360h-30v700h30v-320h205l230 320h25z"/>
<glyph glyph-name="afii10029" horiz-adv-x="745" unicode="Л" d="M630 700v-700h-30v680h-330l-50 -450q-14 -126 -64 -188t-121 -62l-35 5v20h35q56 -1 100 57t55 168l50 470h390z"/>
<glyph glyph-name="afii10030" horiz-adv-x="940" unicode="М" d="M790 650l-320 -540h-15l-315 540h-5v-650h-20v700h30l320 -550h5l325 550h30v-700h-30v650h-5z"/>
<glyph glyph-name="afii10031" horiz-adv-x="760" unicode="Н" d="M145 700v-340h470v340h30v-700h-30v340h-470v-340h-30v700h30z"/>
<glyph glyph-name="afii10032" horiz-adv-x="820" unicode="О" d="M725 350q-1 154 -91 252t-224 98t-224 -98t-91 -252q1 -154 91 -252t224 -98t224 98t91 252zM65 350q1 162 99 266t246 104t246 -104t99 -266q-1 -162 -99 -266t-246 -104t-246 104t-99 266z"/>
<glyph glyph-name="afii10033" horiz-adv-x="760" unicode="П" d="M115 700h530v-700h-30v680h-470v-680h-30v700z"/>
<glyph glyph-name="afii10034" horiz-adv-x="665" unicode="Р" d="M365 260h-220v-260h-30v700h250q110 0 180 -64t70 -156t-70 -156t-180 -64zM365 280q96 0 158 58t62 142t-62 142t-158 58h-220v-400h220z"/>
<glyph glyph-name="afii10035" horiz-adv-x="725" unicode="С" d="M680 145l15 -10q-3 -7 -9 -17t-32 -37q-25 -27 -55 -47t-81 -37t-108 -17q-148 0 -246 104t-99 266q1 162 99 266t246 104q52 0 99 -15t77 -36t52 -43t32 -36l10 -15l-15 -10l-9 15t-30 32q-24 23 -51 41q-27 19 -71 33t-94 14q-134 0 -224 -98t-91 -252q1 -154 91 -252 t224 -98q54 0 102 15t78 36t50 43q22 22 31 36z"/>
<glyph glyph-name="afii10036" horiz-adv-x="590" unicode="Т" d="M280 0v680h-260v20h550l-5 -20h-255v-680h-30z"/>
<glyph glyph-name="afii10037" horiz-adv-x="650" unicode="У" d="M325 110l-295 590h35l275 -550h5l260 550h25l-280 -590q-34 -70 -69 -102t-86 -33q-11 1 -25 3t-22 4l-8 3v20q30 -10 55 -10q76 0 130 115z"/>
<glyph glyph-name="afii10038" horiz-adv-x="940" unicode="Ф" d="M860 350q0 126 -99 208t-276 82v-580q177 0 276 82t99 208zM80 350q0 -126 99 -208t276 -82v580q-177 0 -276 -82t-99 -208zM485 760v-100q191 0 298 -88t107 -222t-107 -222t-298 -88v-90h-30v90q-191 0 -298 88t-107 222t107 222t298 88v100h30z"/>
<glyph glyph-name="afii10039" d="M570 0l-255 335h-5l-255 -335h-25l270 356l-261 344h35l241 -320h5l229 320h25l-244 -339l275 -361h-35z" unicode="Х"/>
<glyph glyph-name="afii10040" horiz-adv-x="775" unicode="Ц" d="M705 0h-590v700h30v-680h460v680h30v-680h100v-200h-20z"/>
<glyph glyph-name="afii10041" horiz-adv-x="710" unicode="Ч" d="M595 700v-700h-30v310q-13 -7 -36 -17q-23 -11 -83 -27t-106 -16q-114 0 -180 60t-65 160v230h30v-230q-1 -92 57 -146t158 -54q47 0 103 15t89 30l33 15v370h30z"/>
<glyph glyph-name="afii10042" horiz-adv-x="1080" unicode="Ш" d="M965 0h-850v700h30v-680h380v680h30v-680h380v680h30v-700z"/>
<glyph glyph-name="afii10043" horiz-adv-x="1105" unicode="Щ" d="M1035 0h-920v700h30v-680h380v680h30v-680h380v680h30v-680h100v-200h-20z"/>
<glyph glyph-name="afii10044" horiz-adv-x="715" unicode="Ъ" d="M400 420h-190v-400h190q96 0 158 58t62 142t-62 142t-158 58zM210 440h190q110 0 180 -64t70 -156t-70 -156t-180 -64h-220v680h-180v20h210v-260z"/>
<glyph glyph-name="afii10045" horiz-adv-x="890" unicode="Ы" d="M145 440h190q110 0 180 -64t70 -156t-70 -156t-180 -64h-220v700h30v-260zM335 420h-190v-400h190q96 0 158 58t62 142t-62 142t-158 58zM775 700v-700h-30v700h30z"/>
<glyph glyph-name="afii10046" horiz-adv-x="660" unicode="Ь" d="M145 440h200q110 0 180 -64t70 -156t-70 -156t-180 -64h-230v700h30v-260zM345 420h-200v-400h200q96 0 158 58t62 142t-62 142t-158 58z"/>
<glyph glyph-name="afii10047" horiz-adv-x="725" unicode="Э" d="M30 135l15 10l9 -15t30 -35t52 -45t76 -34q48 -16 103 -16q133 0 224 96t91 244h-365v20h365q0 148 -91 244t-224 96q-49 0 -93 -14t-73 -34q-28 -20 -49 -40t-30 -33l-10 -14l-15 10q3 5 10 15t31 35t54 45q29 20 76 34q47 16 99 16q149 0 247 -104t98 -266t-98 -266 t-247 -104q-57 0 -107 16t-82 38q-31 22 -54 46q-23 23 -32 39z"/>
<glyph glyph-name="afii10048" horiz-adv-x="1050" unicode="Ю" d="M365 350q-1 -158 85 -254t210 -96t210 96t85 254q1 158 -85 254t-210 96t-210 -96t-85 -254zM145 360h190q-1 160 93 260t232 100t232 -102t93 -268q1 -166 -93 -268t-232 -102t-232 100t-93 260h-190v-340h-30v700h30v-340z"/>
<glyph glyph-name="afii10049" horiz-adv-x="665" unicode="Я" d="M325 310h195v370h-195q-93 0 -149 -52t-56 -133t56 -133t149 -52zM520 290h-235l-210 -290h-35l210 290v5q-8 1 -18 5t-38 20t-48 36t-38 57t-18 82q0 89 64 147t171 58h225v-700h-30v290z"/>
<glyph glyph-name="afii10065" horiz-adv-x="565" unicode="а" d="M245 5q53 0 103 29t74 58l23 28v120q-11 6 -31 15t-72 25q-53 16 -97 15q-81 0 -125 -40t-45 -105q1 -65 45 -105t125 -40zM475 305v-185q-1 -33 3 -63t8 -43l4 -14h-30q-10 45 -10 90h-5q-3 -4 -9 -11t-26 -25t-43 -32q-22 -14 -55 -26t-67 -11q-95 -1 -147 45t-53 120 q1 74 53 120t147 45q44 -1 94 -13t78 -24l28 -13v40q-1 89 -49 139t-131 51q-44 -1 -84 -19t-58 -37l-18 -19l-15 10q3 3 8 9q5 7 22 21t36 26q18 12 48 20q30 9 61 9q97 -1 153 -57t57 -153z"/>
<glyph glyph-name="afii10066" horiz-adv-x="595" unicode="б" d="M525 230q0 97 -62 161t-153 64t-153 -64t-62 -161t62 -161t153 -64t153 64t62 161zM65 250v95q1 160 65 247t165 98l130 15q23 3 45 11t34 13l11 6v-25q-40 -29 -90 -35l-130 -15q-89 -10 -147 -90t-58 -225h5q2 5 7 14t24 31q20 22 42 40q22 17 60 31t82 14 q105 0 175 -70t70 -175t-70 -175t-175 -70q-106 -1 -176 73t-69 192z"/>
<glyph glyph-name="afii10067" horiz-adv-x="550" unicode="в" d="M130 280h170q65 0 100 28t35 72t-35 72t-100 28h-170v-200zM325 260h-195v-240h195q75 0 115 32t40 88t-40 88t-115 32zM100 0v500h200q79 0 122 -34t43 -86q-1 -36 -23 -61t-44 -33l-23 -7v-5l15 -3q10 -1 32 -11q23 -10 41 -23q19 -13 33 -39t14 -58q0 -64 -48 -102 t-137 -38h-225z"/>
<glyph glyph-name="afii10068" horiz-adv-x="445" unicode="г" d="M100 0v500h335l-5 -20h-300v-480h-30z"/>
<glyph glyph-name="afii10069" horiz-adv-x="595" unicode="д" d="M185 480l-30 -280q-5 -58 -27 -102t-40 -58l-18 -15v-5h385v460h-270zM30 0l-10 -160h-20v180h35l9 6t20 20t27 34q11 18 23 52q12 32 16 68l30 300h325v-480h80v-180h-20l-10 160h-505z"/>
<glyph glyph-name="afii10070" horiz-adv-x="575" unicode="е" d="M80 260h420q0 99 -63 167t-147 68t-147 -68t-63 -167zM525 240h-445q0 -100 64 -168t156 -67q36 0 70 11t55 26q23 14 39 30t24 27l7 11l15 -10q-2 -4 -8 -12t-26 -28t-42 -35t-58 -27t-76 -13q-106 0 -178 75t-72 190q0 114 70 190t170 75q100 1 170 -73t70 -182z"/>
<glyph glyph-name="afii10072" horiz-adv-x="770" unicode="ж" d="M20 0l185 265l-160 235h25l155 -230h145v230h30v-230h145l155 230h25l-160 -235l185 -265h-35l-175 250h-140v-250h-30v250h-140l-175 -250h-35z"/>
<glyph glyph-name="afii10073" horiz-adv-x="465" unicode="з" d="M405 385q0 -27 -12 -49q-13 -22 -29 -33q-16 -12 -33 -20t-29 -11l-12 -2v-5q5 -1 14 -3q10 -2 32 -12t39 -22q17 -14 31 -40t14 -58q0 -60 -54 -102t-146 -43q-36 0 -70 12q-34 13 -56 29t-40 33t-26 29l-8 12l15 10q3 -4 8 -11t23 -25t37 -32t51 -26t66 -11 q78 1 124 37t46 88q0 55 -42 90t-118 35h-70v20h75q61 -1 101 33t39 77q0 44 -41 77t-109 33q-27 1 -55 -7t-46 -19t-34 -23q-15 -12 -22 -18l-8 -8l-15 10l9 9q6 7 23 21t37 26t50 20q30 9 61 9q82 0 131 -39t49 -91z"/>
<glyph glyph-name="afii10074" horiz-adv-x="615" unicode="и" d="M130 0h-30v500h30v-455h5l350 455h30v-500h-30v455h-5z"/>
<glyph glyph-name="afii10075" horiz-adv-x="615" unicode="й" d="M335 610q42 0 77 24t49 48l14 23l15 -5q-2 -5 -5 -13q-3 -9 -17 -29t-29 -36q-16 -16 -44 -29t-60 -13t-60 12q-29 12 -45 30t-28 36t-17 30l-5 12l15 5q1 -5 5 -11t17 -22t28 -28t39 -24q24 -10 51 -10zM130 0h-30v500h30v-455h5l350 455h30v-500h-30v455h-5z"/>
<glyph glyph-name="afii10076" horiz-adv-x="520" unicode="к" d="M315 265l185 -265h-35l-175 250h-160v-250h-30v500h30v-230h165l155 230h25z"/>
<glyph glyph-name="afii10077" horiz-adv-x="610" unicode="л" d="M215 480l-30 -280q-12 -112 -53 -166t-97 -54l-35 5v20h35q42 1 76 49t44 146l30 300h325v-500h-30v480h-265z"/>
<glyph glyph-name="afii10078" horiz-adv-x="750" unicode="м" d="M615 450l-245 -370h-15l-230 370h-5v-450h-20v500h30l235 -380h5l250 380h30v-500h-30v450h-5z"/>
<glyph glyph-name="afii10079" horiz-adv-x="615" unicode="н" d="M130 250v-250h-30v500h30v-230h355v230h30v-500h-30v250h-355z"/>
<glyph glyph-name="afii10080" horiz-adv-x="600" unicode="о" d="M50 250q0 115 72 190t178 75t178 -75t72 -190t-72 -190t-178 -75t-178 75t-72 190zM520 250q0 107 -64 176t-156 69t-156 -69t-64 -176t64 -176t156 -69t156 69t64 176z"/>
<glyph glyph-name="afii10081" horiz-adv-x="615" unicode="п" d="M130 480v-480h-30v500h415v-500h-30v480h-355z"/>
<glyph glyph-name="afii10082" d="M330 495q-53 0 -103 -29t-73 -58l-24 -28v-260l9 -12q7 -8 27 -28t42 -35t55 -27t67 -13q95 0 160 69t65 176t-65 176t-160 69zM135 85h-5v-285h-30v580q0 33 -4 63t-8 43l-3 14h30q10 -45 10 -90h5q3 4 9 11q7 7 27 25t42 32t55 26t67 11q109 0 182 -75t73 -190 t-73 -190t-182 -75q-34 1 -66 11t-54 24t-40 30q-18 14 -26 24z" unicode="р"/>
<glyph glyph-name="afii10083" horiz-adv-x="530" unicode="с" d="M490 420l-15 -10q-3 3 -8 9q-5 7 -22 21t-36 26t-49 20q-30 9 -60 9q-92 0 -156 -69t-64 -176t64 -176t156 -69q36 0 70 11t55 26q23 14 39 30t24 27l7 11l15 -10q-2 -4 -8 -12t-26 -28t-42 -35t-58 -27t-76 -13q-106 0 -178 75t-72 190t72 190t178 75q34 0 66 -10 q32 -9 53 -23q23 -14 39 -28t24 -24z"/>
<glyph glyph-name="afii10084" horiz-adv-x="460" unicode="т" d="M10 480v20h440l-5 -20h-200v-480h-30v480h-205z"/>
<glyph glyph-name="afii10085" horiz-adv-x="510" unicode="у" d="M250 -5l-230 505h35l210 -460h5l195 460h25l-230 -540q-42 -96 -82 -138t-93 -42q-11 0 -23 2t-16 6l-6 2v20q20 -10 45 -10q42 0 78 38t72 122z"/>
<glyph glyph-name="afii10086" horiz-adv-x="900" unicode="ф" d="M820 250q0 112 -56 178t-139 67q-40 -1 -80 -19t-60 -37l-20 -19v-340q8 -8 22 -20t56 -34q42 -21 82 -21q83 1 139 67t56 178zM80 250q0 -112 56 -178t139 -67q40 1 80 19t60 37l20 19v340q-8 8 -22 20t-56 34q-42 21 -82 21q-83 -1 -139 -67t-56 -178zM50 250 q0 121 64 193t161 72q41 -1 79 -17t57 -32l19 -16h5v250h30v-250h5q6 7 20 18t54 29t81 18q97 0 161 -72t64 -193t-64 -193t-161 -72q-41 1 -79 17t-57 32l-19 16h-5v-250h-30v250h-5q-6 -7 -20 -18t-54 -29t-81 -18q-97 0 -161 72t-64 193z"/>
<glyph glyph-name="afii10087" horiz-adv-x="475" unicode="х" d="M435 500l-185 -240l205 -260h-35l-185 235h-5l-185 -235h-25l200 255l-190 245h35l170 -220h5l170 220h25z"/>
<glyph glyph-name="afii10088" horiz-adv-x="615" unicode="ц" d="M130 500v-480h345v480h30v-480h80v-180h-20l-10 160h-455v500h30z"/>
<glyph glyph-name="afii10089" horiz-adv-x="585" unicode="ч" d="M485 500v-500h-30v215q-85 -40 -175 -40q-96 0 -148 49t-52 136v140h30v-140q0 -79 44 -122t126 -43q40 0 84 10t68 20l23 10v265h30z"/>
<glyph glyph-name="afii10090" horiz-adv-x="880" unicode="ш" d="M750 20v480h30v-500h-680v500h30v-480h295v480h30v-480h295z"/>
<glyph glyph-name="afii10091" horiz-adv-x="890" unicode="щ" d="M455 500v-480h295v480h30v-480h80v-180h-20l-10 160h-730v500h30v-480h295v480h30z"/>
<glyph glyph-name="afii10092" horiz-adv-x="580" unicode="ъ" d="M340 300h-150v-280h150q76 0 123 41t47 99t-47 99t-123 41zM190 320h150q92 0 146 -47t54 -113t-54 -113t-146 -47h-180v480h-160v20h190v-180z"/>
<glyph glyph-name="afii10093" horiz-adv-x="750" unicode="ы" d="M280 300h-150v-280h150q76 0 123 41t47 99t-47 99t-123 41zM130 320h150q92 0 146 -47t54 -113t-54 -113t-146 -47h-180v500h30v-180zM650 510v-510h-30v510h30z"/>
<glyph glyph-name="afii10094" horiz-adv-x="530" unicode="ь" d="M290 300h-160v-280h160q76 0 123 41t47 99t-47 99t-123 41zM130 320h160q92 0 146 -47t54 -113t-54 -113t-146 -47h-190v500h30v-180z"/>
<glyph glyph-name="afii10095" horiz-adv-x="530" unicode="э" d="M55 410l-15 10q2 4 8 10t24 23t40 29q20 12 52 22t66 11q106 0 178 -75t72 -190t-72 -190t-178 -75q-39 0 -75 12q-35 13 -59 29t-42 33t-26 29l-8 12l15 10q3 -4 8 -11t23 -25t39 -32t55 -26t70 -11q92 -1 156 67t64 168h-255v20h255q0 100 -64 168t-156 67 q-48 1 -92 -21t-64 -43z"/>
<glyph glyph-name="afii10096" horiz-adv-x="800" unicode="ю" d="M720 250q0 109 -60 177t-145 68t-145 -68t-60 -177t60 -177t145 -68t145 68t60 177zM280 250h-150v-250h-30v500h30v-230h150q4 104 72 174t163 71q99 1 167 -73t68 -192t-68 -192t-167 -73q-99 -1 -167 73t-68 192z"/>
<glyph glyph-name="afii10097" horiz-adv-x="560" unicode="я" d="M260 220h170v260h-170q-72 0 -116 -38t-44 -92t44 -92t116 -38zM430 200h-215l-140 -200h-35l145 205v5q-5 2 -13 4t-27 12q-20 10 -35 25q-16 15 -28 41t-12 58q0 62 52 106t138 44h200v-500h-30v200z"/>
<glyph glyph-name="afii10071" horiz-adv-x="575" unicode="ё" d="M80 260h420q0 99 -63 167t-147 68t-147 -68t-63 -167zM525 240h-445q0 -100 64.5 -167.5t155.5 -67.5q36 0 69.5 11t55.5 26t38.5 30.5t24.5 26.5l7 11l15 -10q-3 -5 -8.5 -12.5t-25 -27.5t-42 -35t-59 -27.5t-75.5 -12.5q-106 0 -178 75t-72 190q0 114 70.5 189.5 t169.5 75.5t169.5 -73.5t70.5 -181.5zM405 680q0 -11 -9.5 -20.5t-20.5 -9.5t-20.5 9.5t-9.5 20.5t9.5 20.5t20.5 9.5t20.5 -9.5t9.5 -20.5zM215 680q0 -11 -9.5 -20.5t-20.5 -9.5t-20.5 9.5t-9.5 20.5t9.5 20.5t20.5 9.5t20.5 -9.5t9.5 -20.5z"/>
<glyph glyph-name="afii10099" horiz-adv-x="595" unicode="ђ" d="M515 200v50q0 75 -50 125t-125 50q-53 0 -103 -29t-73 -58l-24 -28v-310h-30v580h-100v20h100v120h30v-120h200l-5 -20h-195v-235h5q3 4 9 11t25 24t41 30t54 24t66 11q93 0 149 -54t56 -141v-50q0 -104 -61 -167t-159 -63v20q84 0 137 57t53 153z"/>
<glyph glyph-name="afii10100" horiz-adv-x="445" unicode="ѓ" d="M250 580l105 190h35l-120 -190h-20zM100 0v500h335l-5 -20h-300v-480h-30z"/>
<glyph glyph-name="afii10101" horiz-adv-x="530" unicode="є" d="M490 420l-15 -10q-3 3 -8 9q-5 7 -22 21t-36 26t-49 20q-30 9 -60 9q-92 1 -156 -67t-64 -168h255l-5 -20h-250q0 -100 64 -168t156 -67q36 0 70 11t55 26q23 14 39 30t24 27l7 11l15 -10q-2 -4 -8 -12t-26 -28t-42 -35t-58 -27t-76 -13q-106 0 -178 75t-72 190t72 190 t178 75q34 0 66 -10q32 -9 53 -23q23 -14 39 -28t24 -24z"/>
<glyph glyph-name="afii10102" horiz-adv-x="470" unicode="ѕ" d="M430 130q0 -60 -54 -102t-146 -43q-36 0 -70 12q-34 13 -56 29t-40 33t-26 29l-8 12l15 10q3 -4 8 -11t23 -25t37 -32t51 -26t66 -11q78 1 124 37t46 88q0 40 -35 66t-85 39t-100 27t-85 44t-35 79q0 52 49 91t131 39q49 1 94 -21t66 -43l20 -21l-15 -10l-8 8t-21 18 t-35 23q-17 10 -45 18t-56 8q-68 0 -109 -33t-41 -77q0 -41 35 -67t85 -38q50 -13 100 -27q50 -15 85 -45t35 -78z"/>
<glyph glyph-name="afii10103" horiz-adv-x="230" unicode="і" d="M145 680q1 -10 -9 -20t-21 -10t-21 10t-9 20q-1 10 9 20t21 10t21 -10t9 -20zM130 500v-500h-30v500h30z"/>
<glyph glyph-name="afii10104" horiz-adv-x="230" unicode="ї" d="M230 680q0 -10 -10 -20t-20 -10t-20 10t-10 20t10 20t20 10t20 -10t10 -20zM40 680q0 -10 -10 -20t-20 -10t-20 10t-10 20t10 20t20 10t20 -10t10 -20zM130 500v-500h-30v500h30z"/>
<glyph glyph-name="afii10105" horiz-adv-x="245" unicode="ј" d="M160 680q0 -10 -10 -20t-20 -10t-20 10t-10 20t10 20t20 10t20 -10t10 -20zM145 500v-480q0 -110 -54 -170t-146 -60v20q77 0 123 54t47 156v480h30z"/>
<glyph glyph-name="afii10106" horiz-adv-x="860" unicode="љ" d="M620 300h-140v-280h140q76 0 123 41t47 99t-47 99t-123 41zM480 320h140q92 0 146 -47t54 -113t-54 -113t-146 -47h-170v480h-235l-30 -280q-12 -112 -53 -166t-97 -54l-35 5v20h35q42 1 76 49t44 146l30 300h295v-180z"/>
<glyph glyph-name="afii10107" horiz-adv-x="845" unicode="њ" d="M615 280h-160v-260h160q73 0 117 38t43 92q1 54 -43 92t-117 38zM455 300h160q87 0 139 -44t51 -106q1 -62 -51 -106t-139 -44h-190v280h-295v-280h-30v500h30v-200h295v200h30v-200z"/>
<glyph glyph-name="afii10108" d="M140 580v-235h5q3 4 9 11t25 24t41 30t54 24t66 11q93 0 149 -54t56 -141v-250h-30v250q0 75 -50 125t-125 50q-53 0 -103 -29t-73 -58l-24 -28v-310h-30v580h-100v20h100v120h30v-120h200l-5 -20h-195z" unicode="ћ"/>
<glyph glyph-name="afii10109" horiz-adv-x="520" unicode="ќ" d="M255 580l105 190h35l-120 -190h-20zM315 265l185 -265h-35l-175 250h-160v-250h-30v500h30v-230h165l155 230h25z"/>
<glyph glyph-name="afii10110" horiz-adv-x="510" unicode="ў" d="M265 620q42 0 77 24t49 48l14 23l15 -5q-2 -5 -5 -13q-3 -9 -17 -29t-29 -36q-16 -16 -44 -29t-60 -13t-60 12q-29 12 -45 30t-28 36t-17 30l-5 12l15 5q1 -5 5 -11t17 -22t28 -28t39 -24q24 -10 51 -10zM250 -5l-230 505h35l210 -460h5l195 460h25l-230 -540 q-42 -96 -82 -138t-93 -42q-11 0 -23 2t-16 6l-6 2v20q20 -10 45 -10q42 0 78 38t72 122z"/>
<glyph glyph-name="afii10193" horiz-adv-x="610" unicode="џ" d="M290 0h-190v500h30v-480h350v480h30v-500h-190l-5 -160h-20z"/>
<glyph glyph-name="afii10050" horiz-adv-x="535" unicode="Ґ" d="M115 0v700h380l10 120h20v-140h-380v-680h-30z"/>
<glyph glyph-name="afii10098" horiz-adv-x="435" unicode="ґ" d="M100 0v500h295l10 110h20v-130h-295v-480h-30z"/>
</font>
</defs>
</svg>
